<?xml version="1.0" encoding="UTF-8" standalone="no"?>
<svg
   xmlns:dc="http://purl.org/dc/elements/1.1/"
   xmlns:cc="http://creativecommons.org/ns#"
   xmlns:rdf="http://www.w3.org/1999/02/22-rdf-syntax-ns#"
   xmlns:svg="http://www.w3.org/2000/svg"
   xmlns="http://www.w3.org/2000/svg"
   xmlns:sodipodi="http://sodipodi.sourceforge.net/DTD/sodipodi-0.dtd"
   xmlns:inkscape="http://www.inkscape.org/namespaces/inkscape"
   version="1.1"
   id="Layer_1"
   x="0px"
   y="0px"
   viewBox="0 0 38.730942 45.400002"
   xml:space="preserve"
   sodipodi:docname="favicon.svg"
   width="38.730942"
   height="45.400002"
   inkscape:version="1.0.2 (e86c8708, 2021-01-15)"><metadata
   id="metadata307"><rdf:RDF><cc:Work
       rdf:about=""><dc:format>image/svg+xml</dc:format><dc:type
         rdf:resource="http://purl.org/dc/dcmitype/StillImage" /></cc:Work></rdf:RDF></metadata><defs
   id="defs305" /><sodipodi:namedview
   pagecolor="#ffffff"
   bordercolor="#666666"
   borderopacity="1"
   objecttolerance="10"
   gridtolerance="10"
   guidetolerance="10"
   inkscape:pageopacity="0"
   inkscape:pageshadow="2"
   inkscape:window-width="1342"
   inkscape:window-height="772"
   id="namedview303"
   showgrid="false"
   inkscape:zoom="8.8285714"
   inkscape:cx="17.73094"
   inkscape:cy="22.2"
   inkscape:window-x="0"
   inkscape:window-y="25"
   inkscape:window-maximized="0"
   inkscape:current-layer="Layer_1" />
<style
   type="text/css"
   id="style10">
	.st0{fill:#231F20;}
	.st1{stroke:#231F20;stroke-width:0.25;stroke-miterlimit:10;}
	.st2{fill:#FFFFFF;}
	.st3{fill:none;stroke:#231F20;stroke-width:0.5;stroke-miterlimit:10;}
	.st4{fill:none;stroke:#231F20;stroke-width:5.000000e-02;stroke-miterlimit:10;}
	.st5{fill:none;stroke:#231F20;stroke-width:0.25;stroke-linecap:round;stroke-miterlimit:10;}
</style>
<path
   class="st0"
   d="m 24.93094,24.4 c -0.7,-0.4 -1.5,-0.8 -2.2,-1.3 -0.4,-0.3 -0.8,-0.5 -1.2,-0.8 -0.3,-0.1 -0.5,-0.3 -0.8,-0.4 -0.2,-0.1 -0.4,-0.3 -0.6,-0.5 -0.2,-0.2 -0.5,-0.3 -0.7,-0.4 -0.3,-0.1 -0.5,-0.3 -0.8,-0.4 -0.5,-0.3 -1,-0.6 -1.5,-0.9 -1,-0.6 -2,-1.3 -2.9,-2 -1.4,-1.1 -3.1,-1.7 -4.5999999,-2.7 -0.5,-0.3 -1,-0.7 -1.5,-1 -0.4,-0.3 -0.9,-0.6 -1.3,-1 -0.2,-0.1 -0.4,-0.3 -0.6,-0.2 -0.2,0 -0.4,0.3 -0.5,0.5 -0.1,0.2 -0.2,0.4 -0.4,0.7 -0.1,0.2 -0.2,0.4 -0.2,0.7 0,0.7 1.1,1.2 1.6,1.4 0.5,0.2 1.1,0.7 1.5,1 0.7,0.5 1.4,1 1.9999999,1.6 0.6,0.5 1.3,0.9 2,1.3 2.9,1.5 5.2,3.6 8.1,5 3.2,1.6 6.1,3.3 9,5.4 0.2,0.1 0.3,-0.2 0.3,-0.3 0,-0.2 -0.2,-0.3 -0.2,-0.5 0,-0.3 0.3,-0.5 0.5,-0.7 0.2,-0.2 0.5,-0.4 0.5,-0.7 0,-0.2 -0.2,-0.3 -0.4,-0.4 -1.7,-1.3 -3.4,-2.4 -5.1,-3.4"
   id="path12" />
<path
   d="m 4.3309401,17 c -0.1,-0.2 -0.4,-0.3 -0.6,-0.3 -0.1,0 -0.1,0 -0.1,0 0,0 0,0 0,0 0,0 -0.1,0 -0.1,0 -0.3,0 -0.6,0.1 -0.8,0.4 -0.1,0.2 -0.3,0.4 -0.3,0.6 0,0.5 0.4,0.9 1,1 0,0 0,0 0,0 0,0 0,0 0,0 0,0 0,0 0,0 0,0 0,0 0.1,0 0.6,0 1.1,-0.5 1.1,-1 -0.1,-0.2 -0.2,-0.5 -0.3,-0.7 z m -0.1,0.7 c 0,-0.3 0,-0.5 -0.1,-0.7 0,0 0.1,0.1 0.1,0.1 0.1,0.1 0.2,0.3 0.2,0.5 0,0.3 -0.2,0.5 -0.4,0.7 0,-0.1 0.1,-0.3 0.2,-0.6 z"
   id="path14" />
<g
   id="g20"
   transform="translate(-17.26906,-1.8)">
	<path
   class="st1"
   d="m 41.7,37.1 c 0,0 0,0 0,0 -0.1,0 -0.1,-0.1 0,0 L 45,30.9 c 0,0 0,0 0.1,0 0,0 0,0 0,0.1 l -3.4,6.1 c 0,0 0,0 0,0 z"
   id="path16" />
	<path
   class="st1"
   d="m 41.7,37.1 c 0,0 -0.1,0 0,0 -0.1,0 -0.1,0 0,0 C 41.6,37 41.6,37 41.6,37 L 45,30.9 c 0,0 0,0 0.1,0 0,0 0,0 0.1,0 0,0 0,0 0,0.1 0,0 0,0 0,0.1 l -3.5,6 c 0,0 0,0 0,0 z m 3.4,-6.2 c 0,0 -0.1,0 0,0 -0.1,0 -0.1,0 0,0 L 41.7,37 c 0,0 0,0 0,0 0,0 0,0 0,0 0,0 0,0 0,0 0,0 0,0 0,0 l 3.4,-6.1 c 0,0 0,0 0,0 0,0 0,0 0,0 0,0 0,0 0,0 z"
   id="path18" />
</g>
<path
   class="st0"
   d="m 29.43094,30 c -0.1,-0.1 -0.3,0 -0.3,0.1 0,0 -0.4,0.7 -0.7,1 -0.1,0.1 -0.2,0.3 -0.3,0.5 l -0.1,0.2 c -0.2,0.2 -0.3,0.5 -0.4,0.6 0,0.1 -0.1,0.2 -0.2,0.3 v 0 c -0.2,0.3 -0.4,0.6 -0.6,0.9 -0.3,0.5 -0.8,1.4 -1,1.6 0,0.1 -0.7,-0.1 -0.8,-0.1 -0.4,0 -0.8,0 -1.2,0 -0.1,0 -0.2,0 -0.2,0.1 0,0 0,0.1 0.1,0.1 0.5,0.3 1.2,0.3 1.7,0.4 0.2,0 0.5,0.1 0.7,-0.1 0.1,-0.1 0.2,-0.2 0.3,-0.3 0.9,-1.5 1.9,-3 2.8,-4.5 0.1,-0.1 0.4,-0.6 0.2,-0.8 z"
   id="path22" />
<path
   d="m 28.83094,29.8 c 0,0 -0.5,0.1 -0.8,0.2 -0.1,0 -0.2,0 -0.2,0 -0.3,0.1 -0.7,0.1 -0.9,0 -0.2,-0.1 -0.4,-0.3 -0.5,-0.5 -0.2,-0.2 -0.4,-0.4 -0.5,-0.5 -0.2,-0.1 -0.4,-0.2 -0.6,-0.3 v 0 0 c -0.2,-0.1 -0.4,-0.2 -0.5,-0.2 -0.2,-0.2 -0.5,-0.3 -0.8,-0.4 -0.1,0 -0.1,0 -0.2,-0.1 v 0 c -0.2,-0.1 -0.7,-0.3 -0.8,-0.5 -0.2,-0.3 -0.6,-0.6 -0.8,-0.7 -0.1,-0.1 -0.3,-0.3 -0.4,-0.5 0,0 -0.1,-0.1 -0.1,0 -0.1,0 0,0.1 0,0.1 0,0 -0.1,0.1 -0.1,0.1 -0.1,0 -0.1,0 -0.1,-0.1 0,0 -0.1,-0.1 -0.1,0 0,0 -0.1,0.1 0,0.1 0,0.1 0.4,0.9 0.7,1.2 0.3,0.3 0.4,0.4 0.7,0.5 0.1,0.1 0.2,0.1 0.3,0.2 0.2,0.1 0.5,0.3 0.9,0.4 0.2,0.1 0.4,0.1 0.5,0.1 0.4,0.1 0.8,0.2 0.9,0.3 0.1,0.1 0.1,0.1 0.2,0.2 0.2,0.1 0.4,0.3 0.6,0.7 0.1,0.2 0.8,0.6 1.5,0.6 0.1,0 0.1,0 0.2,0 0.8,-0.1 1.2,-0.5 1.4,-0.6 0,0 0,-0.1 0,-0.1 -0.4,-0.2 -0.5,-0.2 -0.5,-0.2 z"
   id="path24" />
<path
   d="m 21.63094,25.3 v 0 c -0.1,-0.1 -0.3,-0.2 -0.4,-0.2 0,0 -0.1,0 -0.1,0.1 l -0.1,0.2 h -0.2 c 0,0 -0.1,0 -0.1,0.1 0,0.3 0,0.8 0.4,0.9 0,0 0.1,0 0.1,0 0.3,0 0.5,-0.2 0.6,-0.5 v 0 c 0.1,-0.3 -0.1,-0.5 -0.2,-0.6 z m -0.1,0.5 c -0.1,0.2 -0.2,0.3 -0.3,0.2 -0.2,0 -0.2,-0.3 -0.2,-0.4 h 0.1 c 0,0 0,0 0.1,0 l 0.1,-0.1 c 0.1,0 0.1,0.1 0.2,0.1 v 0 c -0.1,0 0.1,0.1 0,0.2 z"
   id="path26" />
<path
   class="st0"
   d="m 18.03094,30.1 c -0.8,-0.6 -1.5,-1.2 -2.3,-1.8 -0.5,-0.4 -1.1,-0.6 -1.5,-1.1 -0.3,-0.3 -0.5,-0.7 -0.7,-1 -0.3,-0.3 -0.7,-0.6 -1.1,-0.8 -0.9,-0.6 -1.8,-1.1 -2.7999999,-1.7 -0.8,-0.5 -1.4,-1.2 -2.1,-1.7 -1.2,-0.9 -2.5,-1.7 -3.9,-2.4 -0.8,-0.4 -1.6,-0.8 -1.9,-1.6 -0.2,-0.6 -0.2,-1.2 0.1,-1.8 0.3,-0.8 0.9,-1.6 1.6,-2.1 0.3,-0.2 0.6,-0.2 0.8,-0.4 0.3,-0.2 0.4,-0.6 0.6,-0.8 0.2,-0.2 0.3,-0.5 0.5,-0.7 0.3,-0.4 0.6,-0.9 0.8,-1.3 0.1,-0.1 0.2,-0.4 0.3,-0.6 0.3,-0.5 0.6,-1 0.6,-1.2 0.1,-0.2 0.6,-1.1 0.8,-1.5 V 7.5 c 0,-0.1 0.1,-0.1 0.1,-0.2 0,0 0.1,-0.2 0.7,-1.1 v 0 c 0.4,-0.6 0.8,-1.4 0.9,-1.6 l 0.2,-0.2 c 0.2,-0.4 0.7999999,-1.5 1.0999999,-2 0.2,-0.3 0.4,-0.7 0.6,-1.1 0.1,-0.2 0.2,-0.4 0.3,-0.6 0.1,-0.2 0.2,-0.5 0.3,-0.6 0,-0.1 0,-0.1 0.1,-0.1 0,0 0.1,0 0.1,0.1 l 0.2,0.1 c 0.4,0.2 1.1,0.5 1.5,0.6 0.2,0.1 0.3,-0.3 0.5,-0.3 0.1,0 0.2,0 0.3,0.1 0.1,0 0.2,0 0.3,0 0.2,0 0.4,0.1 0.6,0.2 0.4,0.2 2,1 2.3,1.3 l 0.1,0.1 c 0.2,0.2 0.5,0.3 0.9,0.5 0.4,0.2 0.9,0.5 1.1,0.9 0,0.1 0.1,0.1 0.1,0.1 0.2,0.1 2.5,1.3 4.6,2.5 0.1,0 0.1,0 0.2,0 0.1,0 0.1,-0.1 0.1,-0.2 0,0 0,0 0,0 0.1,0 0.2,0.1 0.2,0.2 0.2,0.2 0.5,0.3 0.9,0.5 0.4,0.1 0.8,0.4 1.2,0.6 0.2,0.1 0.3,0.2 0.5,0.3 0.4,0.2 1.2,0.6 1.4,0.8 h 0.1 c 0.2,0.1 0.5,0.3 0.7,0.4 0,0.1 0,0.1 0,0.2 0,0.1 0.1,0.1 0.1,0.1 0.5,0.1 1,0.3 1.2,0.4 0.2,0.2 0.5,0.4 0.9,0.5 0.2,0.1 0.6,0.2 1,0.4 h 0.1 c 0.2,0.1 0.4,0.2 0.6,0.2 0.6,0.2 1.1,0.5 1.7,0.9 0.2,0.1 0.5,0.3 1,0.5 0,0 0,0 0,0 0,0 0,0 0,0.1 0,0.1 0,0.1 0,0.2 0,0.1 0.1,0.1 0.1,0.1 0.3,0.1 0.5,0.3 0.7,0.4 0,0 0,0.1 -0.2,0.4 -0.1,0.2 -0.3,0.6 -0.5,1 v 0.1 c -0.2,0.3 -0.3,0.7 -0.4,0.9 -0.3,0.5 -1.2,2 -1.6,2.7 -0.2,0.3 -0.3,0.5 -0.5,0.7 v 0.1 c -0.3,0.4 -0.4,0.5 -0.4,0.7 0,0 0,0.1 0,0.1 -0.1,0.2 -0.2,0.4 -0.4,0.8 -0.3,0.5 -0.6,1 -0.7,1.1 0,0 0,0.1 -0.1,0.1 -0.1,0.1 -0.3,0.3 -0.5,0.7 -0.3,0.5 -0.9,1.7 -1.2,2.1 l -0.2,0.5 c -0.1,0.1 0,0.2 0,0.3 0.1,0.1 0.4,0.5 0.5,0.8 0.2,0.7 0,1.3 -0.5,1.8 -0.3,0.3 -0.5,0.4 -0.7,0.6 -0.1,0.1 -0.2,0.1 -0.2,0.2 -0.1,0.1 -0.6,0.7 -0.7,1.1 0,0.1 0,0.3 0.1,0.4 v 0 c 0,0 0,0.1 0.1,0.2 -0.3,-0.3 -0.9,-0.7 -1.3,-1 -0.1,-0.1 -0.3,-0.2 -0.3,-0.2 -0.2,-0.2 -0.7,-0.5 -1.2,-0.8 v 0 c -0.3,-0.2 -0.6,-0.4 -0.7,-0.5 -0.3,-0.2 -2.7,-1.6 -3.1,-1.8 -0.3,-0.1 -0.5,-0.2 -0.7,-0.2 0,0 -0.1,-0.1 -0.1,-0.1 -0.1,0 -0.1,-0.1 -0.2,-0.1 l -0.1,-0.1 c -0.1,-0.1 -0.3,-0.1 -0.4,-0.2 0,0 0,0 0,0 0,0 -0.3,-0.2 -0.6,-0.4 l -0.8,-0.5 v 0.4 c 0,0.1 0,0.1 0,0.2 V 25 h 0.1 c 0.6,0.4 1,0.6 1.3,0.6 0.1,0 0.3,0.1 0.4,0.2 l 0.1,0.1 c 0.1,0 0.1,0.1 0.2,0.1 0,0 0,0 0.1,0.1 0,0.1 0.1,0.1 0.2,0.1 0,0 0.3,0 0.6,0.2 0.4,0.2 2.7,1.6 3.1,1.8 0.1,0.1 0.4,0.3 0.8,0.5 l 0.1,0.1 c 0.4,0.3 0.9,0.6 1.1,0.7 0.1,0.1 0.2,0.1 0.4,0.3 0.4,0.3 0.9,0.7 1.3,1 0.3,0.2 0.5,0.3 0.6,0.2 0.3,-0.2 0.1,-0.6 0.2,-0.8 0,-0.3 0.2,-0.5 0.3,-0.7 0.3,-0.3 0.7,-0.5 1,-0.8 0.6,-0.5 0.9,-1.4 0.7,-2.1 -0.1,-0.4 -0.3,-0.8 -0.4,-1.3 -0.1,-0.4 0.3,-0.7 0.5,-1 0.5,-0.8 1,-1.5 1.5,-2.3 0.5,-0.9 1,-1.8 1.5,-2.6 0.4,-0.6 0.7,-1.1 1.1,-1.7 0.7,-1.1 1.3,-2.3 1.9,-3.5 0.1,-0.2 0.2,-0.4 0.2,-0.7 0,-0.2 -0.1,-0.3 -0.3,-0.5 0,0 0,0 -0.1,-0.1 -0.1,0 -0.6,-0.4 -0.6,-0.4 0,-0.1 0,-0.2 0,-0.2 -0.1,-0.2 -0.2,-0.2 -0.3,-0.3 -0.4,-0.2 -0.7,-0.3 -0.9,-0.4 -0.6,-0.4 -1.2,-0.7 -1.8,-0.9 l -0.6,-0.2 c -0.5,-0.2 -0.9,-0.4 -1,-0.4 -0.3,-0.1 -0.5,-0.3 -0.7,-0.4 -0.2,-0.2 -0.8,-0.4 -1.1,-0.5 0,-0.1 -0.1,-0.2 -0.2,-0.3 -0.1,-0.1 -0.6,-0.3 -0.8,-0.4 -0.2,-0.1 -1,-0.6 -1.5,-0.8 -0.1,-0.1 -0.3,-0.2 -0.5,-0.3 -0.4,-0.2 -0.8,-0.4 -1.2,-0.6 -0.4,-0.1 -0.6,-0.3 -0.8,-0.4 -0.1,-0.1 -0.2,-0.1 -0.3,-0.2 -0.2,-0.1 -0.4,-0.1 -0.4,0 0,0 -0.1,0 -0.1,0.1 -0.6,-0.3 -3.9,-2.1 -4.4,-2.4 -0.3,-0.5 -0.9,-0.8 -1.3,-1 -0.3,-0.2 -0.5,-0.3 -0.8,-0.5 l -0.2,-0.1 c -0.2,-0.2 -0.5,-0.3 -0.8,-0.4 -0.4,-0.2 -0.8,-0.4 -1.2,-0.7 0,0 0,0 -0.1,0 -0.3,-0.2 -0.6,-0.3 -1,-0.4 -0.3,-0.1 -0.6,-0.3 -1,-0.1 -0.1,0 -0.1,0.1 -0.2,0.2 0,0 -0.1,0.1 -0.1,0.1 -0.4,-0.1 -0.9,-0.4 -1.2,-0.6 l -0.2,-0.1 c -0.2,-0.1 -0.3,-0.1 -0.5,-0.1 -0.2,0.1 -0.2,0.2 -0.3,0.2 0,0 0,0.1 -0.1,0.2 -0.1,0.1 -0.1,0.3 -0.3,0.5 -0.1,0.2 -0.2,0.4 -0.3,0.6 -0.2,0.3 -0.3,0.7 -0.5,1 -0.3,0.5 -0.9,1.6 -1.0999999,2 l -0.1,0.2 c -0.1,0.1 -0.4,0.7 -0.9,1.6 v 0.1 c -0.4,0.7 -0.6,1 -0.7,1.1 l -0.1,0.2 c -0.2,0.5 -0.7,1.3 -0.8,1.6 -0.1,0.2 -0.3,0.7 -0.6,1.1 l -0.8,-0.4 c -0.1,0.2 -0.2,0.4 -0.3,0.5 -0.2,0.4 -0.5,0.9 -0.8,1.3 -0.2,0.2 -0.3,0.5 -0.5,0.7 -0.2,0.2 -0.5,0.3 -0.8,0.5 -0.2,0.1 -0.5,0.2 -0.7,0.3 -0.3,0.2 -0.5,0.5 -0.7,0.8 -0.4,0.6 -0.8,1.2 -1.19999999,1.8 -0.2,0.5 -0.4,0.9 -0.7,1.4 -0.2,0.4 -0.4,0.8 0,1.2 0.3,0.2 0.79999999,0.7 1.19999999,0.9 0.2,0.1 0.3,0.2 0.5,0.3 h 0.1 c 0.3,0.2 0.5,0.3 0.7,0.4 0.4,0.2 1,0.6 1.4,0.8 0.4,0.2 1,0.7 1.2,1 0.3,0.3 0.6,0.6 1.6,1.1 0.8,0.4 1.8,1 2.6,1.5 l 0.4,0.3 c 0.3999999,0.3 1.0999999,0.8 1.5999999,1.2 0.4,0.3 0.8,0.7 1.1,0.9 0.4,0.3 1,0.8 1.5,1.2 0.3,0.3 0.7,0.5 0.9,0.7 0.4,0.3 1.4,1.1 2.3,1.9 l 0.4,0.3 c 0.7,0.6 1.3,1.1 1.6,1.3 0.6,0.5 2.1,1.6 2.8,2.1 0.4,0.3 0.7,0.5 0.9,0.6 0.1,0.1 0.2,0.1 0.2,0.2 0.2,0.2 0.9,0.2 1,-0.2 0.1,-0.4 -0.5,-0.7 -0.8,-0.9 -1.7,-1.3 -3.5,-2.8 -5.4,-4.2 z"
   id="path28" />
<path
   class="st1"
   d="m 19.43094,24.4 c 0,-0.1 0,-0.1 0,-0.2 0,0 0,0 0,-0.1 0,0 0,0 0,0 0,0 0,0 0,-0.1 -1.5,-0.9 -3.6,-2.2 -3.8,-2.4 -0.1,-0.1 -0.4,-0.3 -0.8,-0.5 v 0 c -0.7,-0.4 -1.7,-1.1 -1.9,-1.2 -0.1,-0.1 -0.7,-0.5 -1.3,-0.9 0,0.1 0,0.1 -0.1,0.2 0.5,0.4 1.2,0.8 1.3,0.9 0.1,0.1 1.2,0.8 1.9,1.2 0.4,0.3 0.7,0.4 0.8,0.5 0.2,0.1 1.7,1.1 3.1,2 -0.1,0 -0.1,-0.1 -0.2,-0.1 -0.3,-0.2 -3.7,-2.2 -3.7,-2.3 0,0 -2.7,-1.7 -3.2,-2 0,0.1 0,0.1 0,0.2 0,0 0,0.1 0.1,0.1 0,0 0.1,0.1 0.1,0.1 0.1,0.1 0.2,0.1 0.3,0.2 0.3,0.2 0.6,0.4 1,0.6 0.3,0.2 0.6,0.4 1,0.6 0.2,0.1 0.4,0.3 0.6,0.4 v 0 c 0.8,0.5 3.4,2.1 3.7,2.2 0.1,0 0.2,0.1 0.3,0.2 0.3,0.2 0.5,0.3 0.8,0.4 0,0 0,0 0,0 z"
   id="path30" />
<path
   d="m 10.73094,18.9 c 0,0 -0.1,0 -0.1,0 0,0 0,0.1 0,0.1 0.1,0 0.1,0.1 0.2,0.1 0.1,0 0.1,0.1 0.2,0.1 0.1,0 0.1,0.1 0.2,0 0,0 0,-0.1 0,-0.1 0,-0.1 -0.1,-0.1 -0.1,-0.1 -0.1,0 -0.1,-0.1 -0.2,-0.1 0,0.1 -0.1,0 -0.2,0 z"
   id="path32" />
<path
   d="m 11.33094,18.9 c 0,0 0,0 0,0 0,-0.1 -0.1,-0.2 -0.1,-0.2 -0.1,-0.1 -0.2,-0.1 -0.3,-0.2 v 0 c 0,0 -0.1,0 -0.1,0 0,0 0,0.1 0,0.1 0.1,0 0.1,0.1 0.2,0.1 0.1,0 0.1,0.1 0.2,0.1 -0.1,0.1 0,0.2 0.1,0.1 0,0.1 0,0.1 0,0 z"
   id="path34" />
<path
   d="m 11.13094,17.2 c 0,-0.4 -0.1,-0.6 -0.3,-0.7 -0.1,0 -0.1,-0.1 -0.2,0 v 0 0 c -0.1,0 -0.1,0.1 -0.1,0.2 0,0.2 0,0.9 -0.4,1.4 -0.1999999,0.4 -0.5999999,0.7 -0.6999999,0.7 -0.1,0 -0.1,0.1 -0.1,0.2 0,0.1 0,0.3 0.1,0.5 0.1,0.2 0.3,0.4 0.5,0.4 0,0 0,0 0.1,0 0.3,0 0.8,-0.6 0.9,-1.1 0,-0.2 0.3,-1 0.2,-1.6 z m -0.4,-0.6 c 0,0 0.2,0.2 0.2,0.6 0.1,0.6 -0.2,1.3 -0.2,1.4 v 0 c -0.1,0.5 -0.6,1 -0.7999999,1 -0.2,0 -0.3,-0.1 -0.4,-0.3 -0.1,-0.1 -0.1,-0.2 -0.1,-0.3 0,0 0,-0.1 0.1,-0.1 0.1,-0.1 0.4999999,-0.3 0.7999999,-0.8 0.4,-0.6 0.4,-1.3 0.4,-1.5 0,0 0,0 0,0 z"
   id="path36" />
<g
   id="g42"
   transform="translate(-17.26906,-1.8)">
	<path
   d="m 28.3,19.8 c 0,0 0,0 0,0 -0.2,-0.3 -0.5,-0.5 -0.5,-0.5 0,0 0,0 0,-0.1 0,0 0.1,0 0.1,0 -0.1,0.1 0.2,0.3 0.4,0.6 0,0 0,0 0,0 0,0 0,0 0,0 z"
   id="path38" />
	<path
   d="m 28.3,19.9 c 0,0 -0.1,0 0,0 -0.2,-0.3 -0.5,-0.5 -0.6,-0.5 0,0 0,0 0,-0.1 0,0 0,0 0,-0.1 0,0 0,0 0.1,0 0,0 0,0 0.1,0 0,0 0.3,0.2 0.5,0.5 0,0.1 0,0.1 -0.1,0.2 0.1,-0.1 0.1,-0.1 0,0 0,0 0,0 0,0 z m -0.5,-0.6 c 0,0 0,0 0,0 0,0 0,0 0,0 0,0 0,0 0,0 0,0 0,0 0,0 0,0.1 0.3,0.3 0.5,0.5 0,0 0,0 0,0 0,0 0,0 0,0 0,0 0,0 0,0 0,0 0,0 0,0 -0.2,-0.3 -0.5,-0.5 -0.5,-0.5 0,0 0,0 0,0 z"
   id="path40" />
</g>
<g
   id="g48"
   transform="translate(-17.26906,-1.8)">
	<path
   d="m 28.2,20.2 c 0,0 0,0 0,0 -0.2,-0.3 -0.5,-0.5 -0.6,-0.6 0,0 0,0 0,-0.1 0,0 0,0 0.1,0 0,0.1 0.4,0.3 0.5,0.7 0.1,-0.1 0.1,0 0,0 0,0 0,0 0,0 z"
   id="path44" />
	<path
   d="m 28.2,20.2 c 0,0 -0.1,0 0,0 -0.2,-0.3 -0.6,-0.6 -0.6,-0.6 0,0 0,0 0,-0.1 0,0 0,0 0,-0.1 0,0 0,0 0.1,0 0,0 0,0 0.1,0 0,0 0.4,0.3 0.5,0.6 0,0.1 0,0.1 -0.1,0.2 0.1,0 0.1,0 0,0 0,0 0,0 0,0 z m -0.5,-0.6 c 0,0 0,0 0,0 0,0 0,0 0,0 0,0 0,0 0,0 0,0 0,0 0,0 0,0 0.3,0.3 0.5,0.6 0,0 0,0 0,0 0,0 0,0 0,0 0,0 0,0 0,0 -0.2,-0.4 -0.5,-0.6 -0.5,-0.6 0,0 0,0 0,0 z"
   id="path46" />
</g>
<g
   id="g54"
   transform="translate(-17.26906,-1.8)">
	<path
   d="m 28.1,18.8 c 0,0 -0.1,0 -0.1,0 -0.1,-0.1 -0.2,-0.2 -0.2,-0.2 0,0 0,-0.1 0,-0.1 0,0 0.1,0 0.1,0 0,0 0,0.1 0.1,0.1 0.1,0 0.1,0 0.2,0 0,0 0.1,0 0.1,0 0,0 0,0.1 0,0.1 -0.1,0.1 -0.1,0.1 -0.2,0.1 z"
   id="path50" />
	<path
   d="m 28.1,18.9 c -0.1,0 -0.1,0 -0.2,0 -0.1,-0.1 -0.2,-0.2 -0.2,-0.2 0,0 0,0 0,-0.1 0,0 0,0 0.1,0 0,0 0,0 0.1,0 0,0 0,0 0,0.1 0,0 0,0.1 0.1,0.1 0,0 0.1,0 0.2,0 0,0 0,0 0.1,0 0,0 0,0 0,0 0,0 0,0 0,0.1 0,0 0,0 0,0 0,-0.1 -0.1,0 -0.2,0 z m -0.2,-0.4 c 0,0 0,0 0,0 0,0.1 0,0.1 0,0 0,0.1 0,0.1 0,0 0,0 0,0.1 0.1,0.2 0.1,0 0.2,0 0.3,0 0,0 0,0 0,0 0,0 0,0 0,0 0,0 0,0 0,0 0,0 0,0 0,0 -0.1,0 -0.2,0 -0.2,0 -0.2,0 -0.2,-0.1 -0.2,-0.2 0,0.1 0,0.1 0,0 0,0 0,0 0,0 z"
   id="path52" />
</g>
<g
   id="g60"
   transform="translate(-17.26906,-1.8)">
	<path
   d="m 27.7,21.2 c 0,0 0,-0.1 0,0 -0.1,-0.6 -0.5,-0.9 -0.5,-0.9 0,0 0,-0.1 0,-0.1 0,0 0.1,0 0.1,0 0,0 0.5,0.3 0.4,1 0.1,-0.1 0.1,0 0,0 0,0 0,0 0,0 z"
   id="path56" />
	<path
   d="m 27.7,21.2 c 0,0 0,0 0,0 -0.1,-0.6 -0.5,-0.9 -0.5,-0.9 0,0 0,0 0,-0.1 0,0 0,0 0,-0.1 0,0 0.1,0 0.1,0 0.1,0.1 0.5,0.4 0.4,1.1 0.1,0 0.1,0 0,0 0.1,0 0,0 0,0 z m -0.4,-1 c 0,0 0,0 0,0 0,0 0,0 0,0 0,0 0,0 0,0 0,0 0.4,0.4 0.4,0.9 0,0 0,0 0,0 v 0 c 0,0 0,0 0,0 0,-0.5 -0.4,-0.9 -0.4,-0.9 0,0 0,0 0,0 z"
   id="path58" />
</g>
<g
   id="g66"
   transform="translate(-17.26906,-1.8)">
	<path
   d="m 27.6,21.4 v 0 c -0.1,0 -0.1,-0.1 0,0 -0.1,-0.6 -0.5,-0.9 -0.5,-0.9 0,0 0,-0.1 0,-0.1 0,0 0.1,0 0.1,0 0,0 0.4,0.3 0.4,1 0,-0.1 0,0 0,0 z"
   id="path62" />
	<path
   d="m 27.6,21.4 v 0 c -0.1,0 -0.1,0 0,0 -0.1,-0.6 -0.5,-0.9 -0.5,-1 0,0 0,-0.1 0,-0.1 0,0 0.1,0 0.1,0 0,0 0.5,0.4 0.4,1.1 0,0 0,0 0,0 z m -0.5,-1 c 0,0 0,0 0,0 0,0 0,0 0,0 0,0 0.4,0.4 0.4,1 0,0 0,0 0,0 v 0 c 0,0 0,0 0,0 0.1,-0.7 -0.3,-1 -0.4,-1 0,0 0,0 0,0 z"
   id="path64" />
</g>
<g
   id="g72"
   transform="translate(-17.26906,-1.8)">
	<path
   class="st1"
   d="m 27.2,20.3 c 0,0 -0.5,-0.3 -0.9,-0.6 C 25.9,19.5 24.9,18.8 24.5,18.5 24.1,18.3 23.8,18 23.3,17.6 L 23.1,17.5 C 22.8,17.3 22.6,17.1 22.5,17.1 22.4,17 22.4,17 22.3,17 c -0.1,-0.1 -0.1,-0.2 -0.1,-0.2 0,0 0,-0.1 0.1,-0.1 0,0 0.1,0 0.1,0.1 0,0 0,0.1 0.1,0.2 0,0 0.1,0.1 0.2,0.1 0.1,0.1 0.3,0.2 0.6,0.4 l 0.2,0.1 c 0.4,0.3 0.8,0.6 1.2,0.9 0.4,0.3 1.4,0.9 1.8,1.1 0.2,0.3 0.8,0.6 0.7,0.7 z"
   id="path68" />
	<path
   class="st1"
   d="m 27.2,20.4 v 0 c 0,0 -0.6,-0.3 -1,-0.6 C 25.8,19.6 24.8,18.9 24.4,18.6 24,18.4 23.7,18.1 23.2,17.7 L 23,17.6 c -0.3,-0.2 -0.5,-0.4 -0.6,-0.4 -0.1,-0.1 -0.1,-0.1 -0.2,-0.1 -0.1,-0.1 -0.1,-0.3 -0.1,-0.3 0,0 0,-0.1 0.1,-0.1 0.1,0 0.1,0 0.1,0.1 0,0 0,0.1 0.1,0.1 0,0 0.1,0.1 0.2,0.1 0.1,0.1 0.3,0.2 0.6,0.4 l 0.2,0.1 c 0.4,0.3 0.8,0.6 1.2,0.9 0.4,0.3 1.4,0.9 1.8,1.1 0.4,0.2 0.9,0.5 0.9,0.5 v 0 z m -4.8,-3.6 c 0,0 0,0 0,0 0,0 0,0.1 0.1,0.2 0,0 0.1,0.1 0.2,0.1 0.1,0.1 0.3,0.2 0.6,0.4 l 0.2,0.1 c 0.4,0.3 0.8,0.6 1.2,0.9 0.4,0.3 1.4,0.9 1.8,1.1 0.3,0.2 0.8,0.5 0.9,0.5 v 0 C 27.3,20 26.8,19.8 26.5,19.6 26.1,19.4 25.1,18.7 24.7,18.5 24.4,18.3 24,18 23.5,17.6 L 23.3,17.5 C 23,17.3 22.8,17.1 22.7,17.1 22.6,17 22.6,17 22.5,17 c -0.1,-0.1 -0.1,-0.2 -0.1,-0.2 0,0 0,0 0,0 z"
   id="path70" />
</g>
<path
   class="st0"
   d="m 10.13094,18.4 c 0.1,-0.1 0.1,-0.2 0.2,-0.3 0,0 0,0 0.1,-0.1 v 0 c 0,0 -0.2,-0.2 -0.4,-0.3 -0.1,-0.1 -0.4999999,-0.3 -0.7999999,-0.5 h -0.2 c -0.2,-0.1 -0.3,-0.2 -0.4,-0.3 -0.2,-0.1 -0.5,-0.4 -0.8,-0.7 -0.2,-0.1 -0.3,-0.3 -0.4,-0.4 -0.3,-0.2 -1,-0.7 -1.3,-0.8 -0.2,-0.1 -0.5,-0.3 -0.7,-0.4 -0.1,-0.1 -0.3,-0.1 -0.3,0 0,0 -0.1,0.1 0,0.2 0,0.1 0,0.1 0.1,0.2 0.3,0.2 0.5,0.4 0.8,0.5 0.3,0.2 0.5,0.6 0.8,0.9 0.3,0.3 0.7,0.5 1,0.6 0.2,0.1 0.4,0.1 0.6,0.2 0.1,0 0.5,0.3 0.5,0.3 l 0.1,-0.1 v 0.2 c 0.3,0.2 0.7,0.4 0.8,0.5 0.1,0.1 0.1999999,0.2 0.2999999,0.3 -0.1,0 0,0 0,0 z"
   id="path74" />
<g
   id="g80"
   transform="translate(-17.26906,-1.8)">
	<path
   class="st2"
   d="m 20.8,18.9 c -0.2,-0.1 -0.4,-0.1 -0.5,0 -0.2,0.1 -0.2,0.4 -0.2,0.4 0,0 0,0.1 0.1,0.1 0,0 0,0 0,0 0,0 0,0 0.1,0 0,0 0,0 0,-0.1 0,0 0,-0.2 0.1,-0.2 0.1,-0.1 0.2,0 0.4,0 0,0 0.1,0 0.1,-0.1 0,-0.1 0,-0.1 -0.1,-0.1 z"
   id="path76" />
	<path
   class="st2"
   d="m 20.1,19.5 c 0,0 0,0 0,0 C 20,19.4 20,19.4 20,19.4 c 0,0 0,0 -0.1,0 0,0 0,0 0,0.1 0,0 0.1,0.4 0.3,0.5 0,0 0,0 0,0 0,0 0.1,0 0.1,-0.1 0,0 0,-0.1 0,-0.1 -0.1,0 -0.2,-0.3 -0.2,-0.3 z"
   id="path78" />
</g>
<g
   id="g86"
   transform="translate(-17.26906,-1.8)">
	<path
   d="m 21.4,19.4 c 0,0 -0.1,-0.1 0,0 -0.1,-0.1 0,-0.1 0,-0.1 h 0.3 c 0,0 0.1,0 0.1,0 0,0 0,0.1 0,0.1 h -0.4 c 0,0 0,0 0,0 z"
   id="path82" />
	<path
   d="m 21.4,19.4 c -0.1,0 -0.1,0 0,0 -0.1,-0.1 -0.1,-0.1 -0.1,-0.1 0,0 0,0 0.1,0 h 0.3 c 0,0 0.1,0 0.1,0.1 0,0 0,0 0,0.1 0,0 0,0 -0.1,0 l -0.3,-0.1 c 0,0 0,0 0,0 z m 0.3,-0.1 v 0 h -0.3 c 0,0 0,0 0,0 0,0 0,0 0,0 0,0 0,0 0,0 v 0 h 0.3 c 0,0 0,0 0,0 0,0 0,0 0,0 0,0 0,0 0,0 z"
   id="path84" />
</g>
<g
   id="g92"
   transform="translate(-17.26906,-1.8)">
	<path
   d="m 21.7,19.6 h -0.4 c 0,0 -0.1,0 -0.1,-0.1 0,0 0,-0.1 0.1,-0.1 h 0.4 c 0,0.1 0.1,0.1 0,0.2 0.1,0 0,0 0,0 z"
   id="path88" />
	<path
   d="m 21.7,19.6 h -0.4 c 0,0 -0.1,0 -0.1,-0.1 0,-0.1 0,-0.1 0.1,-0.1 h 0.4 c 0.1,0.1 0.1,0.1 0,0.2 0.1,0 0.1,0 0,0 z m -0.3,-0.1 c 0,0 -0.1,0.1 0,0 -0.1,0.1 0,0.1 0,0 h 0.4 c 0,0 0,0 0,0 0,0 0,0 0,0 z"
   id="path90" />
</g>
<g
   id="g98"
   transform="translate(-17.26906,-1.8)">
	<path
   d="m 21.6,20 c 0,0 0,0 0,0 l -0.3,-0.1 c 0,0 0,0 0,-0.1 0,0 0,0 0.1,0 l 0.3,0.1 c -0.1,0 0,0 -0.1,0.1 0.1,-0.1 0,0 0,0 z"
   id="path94" />
	<path
   d="m 21.6,20 c 0,0 0,0 0,0 l -0.3,-0.1 c 0,0 -0.1,-0.1 -0.1,-0.1 0,0 0.1,-0.1 0.1,-0.1 l 0.3,0.1 c 0.1,0 0.1,0.1 0,0.2 0.1,0 0,0 0,0 z m -0.3,-0.2 c 0,0 0,0 0,0 0,0 0,0.1 0,0 l 0.3,0.1 c 0,0 0,0 0,0 0,0 0,0 0,0 0,0 0,0 0,0 l -0.3,-0.1 c 0,0 0,0 0,0 z"
   id="path96" />
</g>
<g
   id="g104"
   transform="translate(-17.26906,-1.8)">
	<circle
   class="st2"
   cx="20.9"
   cy="19.4"
   r="0.1"
   id="circle100" />
	<circle
   class="st2"
   cx="20.799999"
   cy="20.1"
   r="0.1"
   id="circle102" />
</g>
<path
   class="st0"
   d="m 13.43094,1.4 c -0.2,-0.1 -0.3,-0.1 -0.5,-0.2 0,0 -0.2,0 -0.3,-0.1 -0.1,0 -0.1,-0.1 -0.2,-0.1 -0.3,-0.1 -0.5,0 -0.7,0.2 0,0.1 -0.1,0.1 -0.1,0.2 -0.1,0.2 -0.2,0.4 -0.5,0.9 -0.4,0.8 -0.7,1.4 -1,1.9 -0.2999999,0.5 -0.5999999,1.1 -0.9999999,1.9 -0.3,0.6 -0.6,1.1 -0.8,1.5 v 0.1 c -0.1,0.2 -0.2,0.3 -0.2,0.4 -0.2,0.4 -0.5,1 -0.7,1.6 -0.1,0.3 -0.3,0.6 -0.5,0.9 v 0 c -0.1,0.2 -0.2,0.3 -0.3,0.5 -0.1,0.1 -0.2,0.3 -0.3,0.5 v 0 c -0.2,0.3 -0.4,0.7 -0.5,0.9 -0.2,0.4 -0.8,1.6 -1.1,2 v 0 c 0,0.1 0,0.1 0,0.2 0,0.1 0.1,0.1 0.1,0.1 0,0 0.1,0 0.1,0 0.1,0 0.2,0 0.2,-0.1 v 0 c 0.3,-0.5 0.9,-1.7 1.1,-2.1 0.1,-0.3 0.3,-0.6 0.5,-0.9 v -0.1 c 0.1,-0.2 0.2,-0.4 0.3,-0.5 0.1,-0.1 0.2,-0.3 0.3,-0.5 0.2,-0.3 0.4,-0.6 0.5,-0.9 0.2,-0.5 0.5,-1.1 0.7,-1.5 0.1,-0.1 0.2,-0.3 0.3,-0.5 v 0 c 0.2,-0.4 0.5,-0.9 0.8,-1.5 C 10.03094,5.4 10.33094,4.8 10.63094,4.3 c 0.3,-0.5 0.6,-1.1 1,-1.9 0.2,-0.5 0.4,-0.7 0.5,-0.9 V 1.4 c 0,-0.1 0.1,-0.1 0.1,-0.2 0,0 0,0 0,0 0,0 0,0 0,0 0,0 0.1,0.1 0.2,0.1 0.1,0.1 0.3,0.2 0.5,0.2 0.2,0 0.3,0.1 0.3,0.1 0.1,0 0.1,0 0.2,0 0.1,0 0.1,-0.1 0.1,-0.1 0,-0.1 0,-0.1 0,-0.2 0,0.2 0,0.2 -0.1,0.1 z"
   id="path106" />
<path
   class="st2"
   d="m 7.1309401,13.7 c 0,0 -0.1,-0.1 -0.1,-0.1 -0.1,0 -0.1,0 -0.1,0.1 0,0 -0.1,0.1 -0.1,0.1 0,0 0,0.1 -0.1,0.1 -0.1,0.2 -0.5,0.8 -0.5,0.8 0,0 0,0 0,0 0,0.1 0,0.2 0,0.2 0,0 0.1,0 0.1,0 0,0 0,0 0.1,0 0.1,0 0.1,-0.1 0.2,-0.2 0,0 0,-0.1 0.1,-0.1 0.1,-0.2 0.4,-0.6 0.4,-0.7 0,0 0,-0.1 0,-0.2 z"
   id="path108" />
<path
   class="st2"
   d="m 8.0309401,14.4 c 0,0 0,-0.1 -0.1,-0.1 -0.1,0 -0.1,0.1 -0.2,0.2 -0.1,0.2 -0.5,0.9 -0.5,0.9 0,0 0,0 0,0.1 0,0.1 0.1,0.1 0.1,0.1 0,0 0,0 0,0 0,0 0,0 0,0 0,0 0.1,-0.1 0.1,-0.2 0.1,-0.1 0.5,-0.7 0.5,-0.7 0,0 0,0 0,0 0.1,-0.2 0.1,-0.2 0.1,-0.3 z"
   id="path110" />
<g
   id="g116"
   transform="translate(-17.26906,-1.8)">
	<path
   class="st0"
   d="m 28.6,17.4 c -0.3,-0.2 -1,-0.6 -1.4,-0.7 -0.3,-0.1 -0.7,-0.4 -1,-0.7 H 26.1 C 26,15.9 25.9,15.9 25.8,15.8 25.5,15.6 24.7,15.1 24.3,14.9 24,14.7 23.4,14.4 23.4,14.4 c 0,0 -0.1,0 -0.2,0 -0.1,0 -0.1,0 -0.1,0.1 0,0 0,0.1 0,0.2 0,0.1 0,0.1 0.1,0.1 0.2,0.1 0.6,0.4 0.9,0.5 0.3,0.2 1.1,0.7 1.4,0.9 0.1,0.1 0.2,0.1 0.3,0.2 0.3,0.2 0.8,0.6 1.2,0.7 0.4,0.2 1.1,0.6 1.4,0.7 0,0 0,0 0,0 l 0.2,0.1 v -0.2 c 0,-0.1 0,-0.1 0,-0.2 z"
   id="path112" />
	<path
   class="st0"
   d="m 40.3,24.9 v 0 C 40.2,24.7 40.1,24.6 40,24.6 39.9,24.6 39.8,24.5 39.6,24.4 39.4,24.3 39.3,24.2 39.2,24.1 39,23.8 38.8,23.8 38.6,23.8 38.5,23.7 38.4,23.7 38.2,23.6 38.1,23.5 37.9,23.4 37.7,23.3 37.6,23.2 37.5,23.1 37.4,23.1 37.2,23 36.7,22.7 36.4,22.5 l -0.2,-0.1 c -0.1,0 -0.1,-0.1 -0.2,-0.1 -0.2,-0.1 -0.7,-0.4 -0.7,-0.5 -0.1,-0.2 -0.5,-0.5 -0.6,-0.6 L 34.3,21 c -0.2,-0.1 -0.5,-0.3 -0.7,-0.4 -0.3,-0.1 -0.5,-0.3 -1,-0.6 h -0.1 c -0.3,-0.2 -0.9,-0.6 -1.3,-0.9 -0.3,-0.2 -0.5,-0.3 -0.6,-0.4 -0.2,-0.1 -0.7,-0.4 -1,-0.7 v 0 C 29.4,17.9 29.3,17.8 29.2,17.8 29.1,17.7 29,17.7 28.9,17.7 l -0.2,-0.1 v 0.2 c 0,0.1 0,0.1 0,0.2 v 0.1 h 0.1 c 0,0 0.1,0 0.1,0.1 0.1,0 0.2,0.1 0.3,0.2 l 0.2,0.1 c 0.4,0.2 0.9,0.5 1,0.6 0.1,0.1 0.3,0.2 0.6,0.4 l 0.1,0.1 c 0.4,0.3 1,0.6 1.2,0.8 l 0.1,0.1 c 0.5,0.3 0.7,0.5 1,0.7 0.2,0.1 0.5,0.3 0.7,0.4 0,0 0.1,0.1 0.1,0.1 0.1,0.1 0.4,0.3 0.5,0.5 0.1,0.2 0.4,0.3 0.9,0.6 0.1,0 0.2,0.1 0.2,0.1 L 36,23 c 0.3,0.2 0.8,0.5 1,0.6 0.1,0.1 0.2,0.1 0.3,0.2 0.2,0.1 0.4,0.3 0.6,0.3 0.2,0.1 0.4,0.2 0.4,0.2 0.1,0.1 0.2,0.1 0.2,0 0,0 0.1,0 0.1,0.1 0.1,0.2 0.4,0.4 0.6,0.5 0.2,0.1 0.3,0.2 0.4,0.2 0,0 0.1,0.1 0.2,0.2 0,0.1 0.1,0.1 0.2,0.1 0,0 0.1,0 0.1,0 0,0 0.1,-0.1 0.1,-0.1 0,0 0.1,-0.4 0.1,-0.4 z"
   id="path114" />
</g>
<g
   id="g122"
   transform="translate(-17.26906,-1.8)">
	<path
   d="m 39.2,27.4 c 0,0 -0.1,0 0,0 -0.1,0 -0.1,0 0,0 0,-0.1 0.1,-0.2 0.4,-0.5 0.3,-0.3 0.6,-0.4 0.9,-0.5 0.1,0 0.1,-0.1 0.2,-0.1 0.3,-0.2 0.4,-0.2 0.3,-0.6 0,-0.2 -0.1,-0.3 -0.2,-0.3 -0.1,0 -0.1,0 -0.1,0 -0.1,0 -0.4,0.1 -0.6,0.3 -0.2,0.1 -0.4,0.3 -0.7,0.5 -0.4,0.2 -0.9,0.8 -0.9,0.8 0,0 -0.1,0 -0.1,0 0,0 0,-0.1 0,-0.1 0,0 0.5,-0.6 0.8,-0.9 0.3,-0.3 0.5,-0.4 0.7,-0.6 0.2,-0.1 0.5,-0.3 0.6,-0.3 0,0 0.1,0 0.2,0 0.1,0.1 0.2,0.2 0.2,0.4 0.1,0.4 0,0.5 -0.4,0.7 -0.1,0 -0.1,0.1 -0.2,0.1 -0.3,0.1 -0.6,0.3 -0.8,0.5 -0.2,0.5 -0.3,0.6 -0.3,0.6 0,0 0,0 0,0 z"
   id="path118" />
	<path
   d="m 39.2,27.5 c -0.1,0 -0.1,0 0,0 -0.1,-0.1 -0.1,-0.1 0,0 -0.1,-0.1 -0.1,-0.1 -0.1,-0.2 0,0 0.1,-0.1 0.4,-0.4 0.3,-0.3 0.6,-0.4 0.9,-0.6 0.1,0 0.1,-0.1 0.2,-0.1 0.3,-0.2 0.4,-0.2 0.3,-0.5 0,-0.2 -0.1,-0.3 -0.2,-0.3 0,0 -0.1,0 -0.1,0 -0.1,0 -0.4,0.1 -0.6,0.3 -0.2,0.1 -0.4,0.3 -0.7,0.5 -0.3,0.3 -0.8,0.8 -0.8,0.8 0,0 0,0 -0.1,0 0,0 0,0 -0.1,0 0,0 0,0 0,-0.1 0,0 0,0 0,-0.1 0,0 0.5,-0.6 0.8,-0.9 0.3,-0.3 0.5,-0.4 0.7,-0.6 0.2,-0.2 0.5,-0.3 0.6,-0.3 0,0 0.1,0 0.2,0 0.1,0.1 0.2,0.2 0.2,0.4 0.1,0.4 0,0.5 -0.4,0.7 -0.1,0 -0.1,0.1 -0.2,0.1 -0.3,0.1 -0.6,0.3 -0.8,0.5 -0.1,0.6 -0.2,0.7 -0.2,0.8 0,0 0,0 0,0 z m 1.4,-2.2 c 0.1,0 0.1,0 0,0 0.2,0.1 0.2,0.2 0.3,0.4 0.1,0.4 0,0.4 -0.3,0.6 -0.1,0 -0.1,0.1 -0.2,0.1 -0.3,0.1 -0.6,0.3 -0.8,0.5 -0.3,0.3 -0.4,0.4 -0.4,0.4 0,0 0,0 0,0 0,0 0,0 0,0 0,0 0,0 0,0 0,0 0,0 0,0 0,0 0.1,-0.1 0.4,-0.4 0.3,-0.3 0.5,-0.4 0.8,-0.5 0.1,0 0.1,-0.1 0.2,-0.1 0.4,-0.2 0.4,-0.2 0.3,-0.6 0,-0.2 -0.1,-0.3 -0.2,-0.4 0,0 -0.1,0 -0.1,0 -0.2,0 -0.5,0.1 -0.7,0.3 -0.2,0.1 -0.4,0.3 -0.7,0.6 -0.3,0.3 -0.8,0.9 -0.8,0.9 0,0 0,0 0,0 0,0 0,0 0,0 0,0 0,0 0,0 0,0 0,0 0,0 0,0 0.5,-0.6 0.8,-0.9 0.3,-0.3 0.5,-0.4 0.7,-0.6 0.3,-0.1 0.6,-0.2 0.7,-0.3 0,0 0,0 0,0 z"
   id="path120" />
</g>
<g
   id="g128"
   transform="translate(-17.26906,-1.8)">
	<path
   d="m 40.9,26.3 c 0,0 -0.1,0 0,0 -0.4,-0.2 -0.4,-0.9 -0.4,-0.9 0,0 0,-0.1 0,-0.1 0,0 0.1,0 0.1,0 -0.1,0.1 0,0.7 0.3,1 0,-0.1 0,-0.1 0,0 0,-0.1 0,0 0,0 z"
   id="path124" />
	<path
   d="m 40.9,26.3 c -0.1,0 -0.1,0 0,0 -0.2,-0.1 -0.3,-0.3 -0.4,-0.5 -0.1,-0.2 -0.1,-0.4 -0.1,-0.4 0,0 0,0 0,-0.1 0,0 0,0 0.1,0 0,0 0,0 0.1,0 0,0 0,0 0,0.1 0,0 0.1,0.6 0.4,0.8 -0.1,0 0,0 -0.1,0.1 0,0 0,0 0,0 z m -0.4,-1 c 0,0 0,0 0,0 0,0 0,0 0,0 -0.1,0.1 -0.1,0.1 0,0 0,0 0,0.7 0.4,0.9 0,0 0,0 0,0 0,0 0,0 0,0 -0.4,-0.2 -0.4,-0.8 -0.4,-0.9 0,0.1 0,0.1 0,0 0,0 0,0 0,0 z"
   id="path126" />
</g>
<g
   id="g134"
   transform="translate(-17.26906,-1.8)">
	<path
   d="m 40.1,26.7 c -0.1,0 -0.1,-0.1 0,0 -0.2,-0.6 -0.6,-0.6 -0.6,-0.6 0,0 0,0 0,-0.1 0,0 0,0 0.1,0 -0.1,-0.1 0.3,0 0.5,0.7 0,-0.1 0,-0.1 0,0 0,0 0,0 0,0 z"
   id="path130" />
	<path
   d="m 40.1,26.7 c -0.1,0 -0.1,0 0,0 -0.3,-0.6 -0.6,-0.6 -0.6,-0.6 0,0 0,0 -0.1,0 0,0 0,0 0,-0.1 0,0 0,0 0,-0.1 0,0 0,0 0.1,0 0,0 0.4,0.1 0.6,0.7 0.1,0 0,0 0,0.1 0,0 0,0 0,0 0,0 0,0 0,0 z m -0.6,-0.8 c 0,0 0,0 0,0 0,0 0,0.1 0,0 0,0.1 0,0.1 0,0 0,0.1 0,0.1 0,0 0,0 0.4,0.1 0.6,0.7 0,0 0,0 0,0 0,0 0,0 0,0 0,0 0,0 0,0 -0.2,-0.6 -0.6,-0.7 -0.6,-0.7 0,0 0,0 0,0 z"
   id="path132" />
</g>
<g
   id="g140"
   transform="translate(-17.26906,-1.8)">
	<path
   class="st2"
   d="m 38.5,26.4 c 0,0 0,0 0,0 -0.5,-0.2 -0.8,-0.7 -0.8,-0.7 0,0 0,-0.1 0,-0.1 0,0 0.1,0 0.1,0 0,0 0.3,0.5 0.8,0.6 0,0.1 0,0.1 -0.1,0.2 0.1,0 0.1,0 0,0 z"
   id="path136" />
	<path
   class="st2"
   d="m 38.5,26.4 c 0,0 0,0 0,0 -0.5,-0.2 -0.8,-0.7 -0.9,-0.7 0,0 0,-0.1 0,-0.1 0,0 0.1,0 0.1,0 0,0 0.3,0.4 0.7,0.6 0.2,0.1 0.2,0.1 0.1,0.2 0.1,0 0.1,0 0,0 z m -0.7,-0.7 c 0,0 -0.1,0 0,0 -0.1,0 -0.1,0 0,0 0,0 0.3,0.5 0.8,0.7 0,0 0,0 0,0 0,0 0,0 0,0 -0.5,-0.3 -0.8,-0.7 -0.8,-0.7 0,0 0,0 0,0 z"
   id="path138" />
</g>
<g
   id="g146"
   transform="translate(-17.26906,-1.8)">
	<path
   d="m 34.4,21.2 c -0.1,0 -0.1,0 0,0 0,0 -0.4,-0.2 -0.7,-0.4 -0.2,-0.1 -0.6,-0.3 -0.9,-0.5 -0.2,-0.1 -0.4,-0.3 -0.5,-0.4 -0.1,-0.1 -0.1,-0.1 -0.2,-0.1 -0.1,-0.1 -0.4,-0.3 -0.7,-0.5 -0.1,-0.1 -0.2,-0.1 -0.3,-0.2 -0.1,0 -0.1,0 -0.2,-0.1 -0.1,-0.1 -0.6,-0.4 -0.6,-0.4 0,0 0,-0.1 0,-0.1 0,0 0.1,0 0.1,0 0,0 0.5,0.4 0.6,0.4 0,0 0.1,0 0.2,0.1 0.1,0 0.2,0.1 0.4,0.2 0.3,0.2 0.6,0.4 0.7,0.5 0.1,0 0.1,0.1 0.2,0.2 0.2,0.1 0.3,0.3 0.5,0.4 0.3,0.1 0.6,0.4 0.9,0.5 0.1,0.1 0.5,0.3 0.5,0.4 0,0 0,0 0,0 0,0 0,0 0,0 z"
   id="path142" />
	<path
   d="m 34.4,21.3 c -0.1,0 -0.1,0 0,0 -0.1,0 -0.4,-0.2 -0.7,-0.4 -0.3,-0.1 -0.6,-0.3 -0.9,-0.5 -0.2,-0.1 -0.4,-0.3 -0.5,-0.4 v 0 c -0.1,-0.1 -0.1,-0.1 -0.2,-0.1 -0.1,-0.1 -0.4,-0.3 -0.7,-0.5 -0.1,-0.1 -0.2,-0.1 -0.3,-0.2 -0.1,0 -0.1,0 -0.2,-0.1 -0.1,-0.1 -0.6,-0.4 -0.6,-0.4 0,0 0,0 0,-0.1 0,0 0,0 0,-0.1 0,0 0,0 0.1,0 0,0 0,0 0.1,0 0.1,0 0.5,0.4 0.6,0.4 0,0 0.1,0 0.1,0.1 0.1,0 0.2,0.1 0.4,0.2 0.3,0.2 0.6,0.4 0.7,0.5 0.1,0 0.1,0.1 0.2,0.2 0.2,0.1 0.3,0.3 0.5,0.4 0.3,0.1 0.6,0.4 0.9,0.5 0.3,0.1 0.7,0.4 0.7,0.4 -0.2,-0.1 -0.1,0 -0.2,0.1 0,0 0,0 0,0 z m -4.1,-2.8 c 0,0 0,0 0,0 0,0 0,0 0,0 0,0 0,0.1 0,0 0,0.1 0,0.1 0,0 0,0 0.5,0.4 0.6,0.5 0.1,0 0.1,0.1 0.2,0.1 0.1,0 0.2,0.1 0.3,0.2 0.3,0.2 0.6,0.4 0.7,0.5 0.1,0 0.1,0.1 0.2,0.1 v 0 c 0.2,0.1 0.3,0.3 0.5,0.4 0.3,0.1 0.6,0.4 0.9,0.5 0.3,0.1 0.6,0.4 0.7,0.4 0,0 0,0 0,0 0,0 0,0 0,0 0,0 -0.4,-0.2 -0.7,-0.4 C 33.5,20.7 33.1,20.5 32.8,20.3 32.6,20.2 32.5,20 32.3,19.9 32.2,19.8 32.2,19.8 32.1,19.7 32,19.6 31.7,19.4 31.4,19.2 31.3,19.1 31.1,19.1 31,19 c 0,0 0,0 -0.1,0 -0.1,-0.1 -0.6,-0.5 -0.6,-0.5 0,0 0,0 0,0 z"
   id="path144" />
</g>
<g
   id="g152"
   transform="translate(-17.26906,-1.8)">
	<path
   class="st2"
   d="m 33,21.7 c 0,0 0,0 0,0 -0.1,0 -0.7,-0.3 -0.8,-0.5 -0.2,-0.1 -0.5,-0.4 -0.6,-0.6 -0.1,-0.1 -0.3,-0.2 -0.5,-0.3 -0.1,0 -0.2,-0.1 -0.2,-0.1 -0.3,-0.1 -1.1,-0.8 -1.1,-0.9 0,0 0,-0.1 0,-0.1 0,0 0.1,0 0.1,0 0,0 0.8,0.7 1.1,0.9 0.1,0 0.2,0.1 0.2,0.1 0.2,0.1 0.5,0.2 0.5,0.3 0.1,0.1 0.4,0.4 0.6,0.6 0.1,0.2 0.7,0.5 0.7,0.6 0,-0.1 0.1,-0.1 0,0 0,0 0,0 0,0 z"
   id="path148" />
	<path
   class="st2"
   d="m 33,21.7 c 0,0 0,0 0,0 -0.2,-0.1 -0.7,-0.4 -0.8,-0.5 -0.2,-0.1 -0.5,-0.4 -0.6,-0.6 -0.1,-0.1 -0.3,-0.2 -0.5,-0.3 v 0 c -0.1,0 -0.2,-0.1 -0.2,-0.1 -0.3,-0.1 -1,-0.8 -1.1,-0.9 0,0 0,0 0,-0.1 0,0 0,0 0,-0.1 0,0 0,0 0.1,0 0,0 0,0 0.1,0 v 0 c 0.1,0.1 0.8,0.7 1.1,0.9 0.1,0 0.1,0.1 0.2,0.1 0.2,0.1 0.5,0.2 0.6,0.4 0.1,0.1 0.4,0.4 0.6,0.5 0.1,0.1 0.8,0.4 0.8,0.4 0,0 0,0 0,0.1 -0.2,0.1 -0.2,0.2 -0.3,0.2 0.1,0 0,0 0,0 z m -3.2,-2.4 c 0,0 0,0 0,0 0,0 0,0 0,0 0,0 0,0 0,0 0,0 0,0 0,0 0.1,0.1 0.8,0.8 1.1,0.9 0.1,0 0.1,0.1 0.2,0.1 v 0 c 0.2,0.1 0.4,0.2 0.5,0.3 0.1,0.1 0.4,0.5 0.6,0.6 0.1,0.1 0.7,0.4 0.8,0.4 0,0 0,0 0,0 0,0 0,0 0,0 0,0 0,0 0,0 0,0 0,0 0,0 0,0 -0.6,-0.3 -0.8,-0.4 -0.1,-0.1 -0.5,-0.4 -0.6,-0.6 -0.1,-0.1 -0.3,-0.2 -0.5,-0.3 -0.1,0 -0.2,-0.1 -0.2,-0.1 -0.3,-0.2 -1,-0.8 -1.1,-0.9 v 0 c 0,0 0,0 0,0 z"
   id="path150" />
</g>
<g
   id="g158"
   transform="translate(-17.26906,-1.8)">
	<path
   class="st2"
   d="m 32.3,22.3 c 0,0 0,0 0,0 0,0 -0.3,-0.2 -0.5,-0.3 -0.2,-0.1 -0.5,-0.3 -0.8,-0.5 l -0.2,-0.2 c -0.2,-0.2 -0.5,-0.4 -0.6,-0.5 -0.2,-0.2 -0.4,-0.3 -0.6,-0.4 -0.2,-0.1 -0.5,-0.3 -0.5,-0.3 0,0 0,-0.1 0,-0.1 0,0 0.1,0 0.1,0 0,0 0.2,0.2 0.5,0.3 0.2,0.1 0.4,0.2 0.6,0.4 0.1,0.1 0.4,0.3 0.6,0.5 l 0.2,0.2 c 0.3,0.2 0.6,0.4 0.8,0.5 0.1,0.1 0.4,0.3 0.4,0.4 0.1,-0.1 0.1,-0.1 0,0 0.1,0 0,0 0,0 z"
   id="path154" />
	<path
   class="st2"
   d="m 32.3,22.3 c 0,0 0,0 0,0 0,0 -0.4,-0.2 -0.5,-0.3 -0.2,-0.1 -0.5,-0.3 -0.8,-0.5 l -0.2,-0.2 c -0.2,-0.2 -0.5,-0.4 -0.6,-0.5 -0.2,-0.2 -0.4,-0.3 -0.6,-0.4 -0.2,-0.1 -0.5,-0.3 -0.5,-0.3 0,0 0,0 0,-0.1 0,-0.1 0,0 0,-0.1 0,0 0.1,0 0.1,0 0,0 0.2,0.2 0.4,0.3 0.2,0.1 0.4,0.2 0.6,0.4 0.1,0.1 0.4,0.3 0.6,0.5 l 0.2,0.2 c 0.3,0.2 0.6,0.4 0.8,0.5 0.2,0.1 0.5,0.3 0.5,0.3 0,0 0,0 0,0.1 0.1,0 0.1,0 0,0.1 0.1,0 0.1,0 0,0 z M 29.1,20 c 0,0 0,0 0,0 0,0.1 0,0.1 0,0 0,0.1 0,0.1 0,0 0,0 0.2,0.3 0.5,0.4 0.2,0.1 0.4,0.2 0.6,0.4 0.1,0.1 0.4,0.3 0.6,0.5 l 0.2,0.2 c 0.3,0.2 0.6,0.4 0.8,0.5 0.2,0.1 0.5,0.3 0.5,0.3 0,0 0,0 0,0 0,0 0,0 0,0 0,0 0,0 0,0 0,0 -0.3,-0.2 -0.5,-0.3 C 31.6,21.9 31.3,21.7 31,21.5 L 30.8,21.3 C 30.6,21.1 30.3,20.9 30.2,20.8 30,20.6 29.8,20.5 29.6,20.4 29.4,20.3 29.1,20.1 29.1,20 c 0,0 0,0 0,0 z"
   id="path156" />
</g>
<g
   id="g164"
   transform="translate(-17.26906,-1.8)">
	<path
   class="st2"
   d="m 35.2,22.5 c 0,0 0,0 0,0 -0.1,-0.1 -0.4,-0.3 -0.5,-0.3 -0.2,0 -0.3,-0.2 -0.3,-0.3 0,0 0,-0.1 0,-0.1 0,0 0.1,0 0.1,0 0,0 0.1,0.2 0.2,0.2 0.2,0.1 0.5,0.4 0.5,0.5 0.1,0 0.1,0 0,0 0.1,0 0.1,0 0,0 z"
   id="path160" />
	<path
   class="st2"
   d="m 35.2,22.6 c 0,0 0,0 0,0 C 35,22.5 34.8,22.3 34.7,22.3 34.5,22.2 34.4,22 34.4,22 c 0,0 0,0 0,-0.1 0,0 0,0 0,-0.1 0,0 0.1,0 0.1,0 0,0 0.1,0.2 0.2,0.2 0.2,0 0.5,0.3 0.5,0.4 0.1,0 0.1,0.1 0,0.2 0.1,-0.1 0.1,-0.1 0,0 0.1,0 0.1,0 0,0 z m -0.7,-0.7 c 0,0 0,0 0,0 0,0 0,0 0,0 0,0 0,0 0,0 0,0 0.1,0.2 0.3,0.3 0.1,0 0.5,0.3 0.5,0.3 0,0 0,0 0,0 0,0 0,0 0,0 0,0 0,0 0,0 0,0 0,0 0,0 -0.1,-0.1 -0.4,-0.3 -0.5,-0.3 -0.2,-0.1 -0.3,-0.3 -0.3,-0.3 0,0 0,0 0,0 z"
   id="path162" />
</g>
<path
   class="st2"
   d="m 16.03094,20.6 c -0.1,-0.1 -0.3,-0.1 -0.4,-0.1 -0.1,0 -0.1,0.1 -0.1,0.2 0,0.2 0.1,0.4 0.1,0.4 0.1,0.1 0.2,0.2 0.3,0.2 0,0 0,0 0,0 0.1,0 0.2,-0.1 0.3,-0.1 0,-0.1 0.1,-0.1 0.1,-0.2 -0.1,-0.2 -0.2,-0.3 -0.3,-0.4 z"
   id="path166" />
<path
   class="st2"
   d="m 17.63094,21.7 c 0,-0.1 -0.1,-0.2 -0.2,-0.2 -0.1,0 -0.3,-0.1 -0.4,0.1 -0.1,0.1 -0.1,0.3 -0.1,0.4 v 0 c 0,0 0,0 0,0 v 0 0 c 0,0.2 0.2,0.2 0.2,0.3 0,0 0,0 0.1,0 0.1,0 0.3,-0.1 0.3,-0.2 0.1,-0.2 0.1,-0.3 0.1,-0.4 z"
   id="path168" />
<path
   class="st2"
   d="m 19.03094,22.8 c -0.1,-0.2 -0.2,-0.3 -0.4,-0.4 -0.1,0 -0.1,0 -0.2,0 -0.1,0.1 -0.2,0.2 -0.2,0.4 0,0.2 0.1,0.4 0.4,0.4 0,0 0,0 0,0 0.2,0 0.4,-0.1 0.4,-0.3 0.1,0 0.1,-0.1 0,-0.1 z"
   id="path170" />
<path
   class="st2"
   d="m 25.33094,26.1 c -0.1,-0.2 -0.2,-0.3 -0.4,-0.4 -0.1,0 -0.1,0 -0.2,0 -0.1,0.1 -0.2,0.2 -0.2,0.4 0,0.2 0.1,0.4 0.4,0.4 0,0 0,0 0,0 0.2,0 0.4,-0.1 0.4,-0.3 0.1,0 0,-0.1 0,-0.1 z"
   id="path172" />
<path
   class="st2"
   d="m 18.83094,21.3 c -0.2,0 -0.3,0.1 -0.3,0.3 0,0.2 0.1,0.3 0.3,0.3 0.2,0 0.3,-0.1 0.3,-0.3 -0.1,-0.1 -0.2,-0.3 -0.3,-0.3 z"
   id="path174" />
<path
   class="st2"
   d="m 23.53094,24.2 c -0.2,0 -0.3,0.1 -0.3,0.3 0,0.2 0.1,0.3 0.3,0.3 0.2,0 0.3,-0.1 0.3,-0.3 0,-0.2 -0.1,-0.3 -0.3,-0.3 z"
   id="path176" />
<path
   class="st2"
   d="m 19.73094,21.8 c -0.1,0 -0.3,0.1 -0.3,0.3 0,0.2 0.1,0.3 0.3,0.3 0.1,0 0.3,-0.1 0.3,-0.3 0,-0.2 -0.1,-0.3 -0.3,-0.3 z"
   id="path178" />
<path
   class="st2"
   d="m 9.8309401,15.9 c 0,0 -0.1,-0.1 -0.2,-0.2 0,0 0.1,-0.1 0.1,-0.2 0,0 0,-0.1 -0.1,-0.1 -0.1,0 -0.1,0 -0.2,0 0,0 -0.1,0 -0.1,0.1 -0.1,0 -0.1,-0.1 -0.2,-0.1 0,0 0,0 0,0 l -0.1,0.1 c 0,0 -0.1,0 -0.1,0 0,0 -0.1,0 -0.1,0 -0.3,0.2 -0.3,0.3 -0.3,0.3 0,0.1 0,0.1 0.1,0.1 0,0 0,0 -0.1,0.1 0,0 0,0 0,0 0,0 0,0 0,0 0,0 0,0 0,0 -0.1,0.1 -0.2,0.2 -0.2,0.3 0,0 0,0.1 0.1,0.1 0.3,0.1 0.5,0.4 0.5,0.4 0,0 0,0 0,0 0,0 0.1,0.1 0.1,0.1 0,0 0,0 0,0 0,0 0,0 0,0 0,0 0,0 0,0 0,0 0,0 0,0 0,0 0.1,0 0.1,-0.1 0,0 0,-0.1 0.1,-0.1 0.1,-0.1 0.1,-0.2 0.2,-0.2 0.4,-0.5 0.4,-0.6 0.4,-0.6 z"
   id="path180" />
<path
   class="st2"
   d="m 27.83094,27 c 0,0 -0.1,-0.1 -0.2,-0.2 0,0 0.1,-0.1 0.1,-0.2 0,0 0,-0.1 -0.1,-0.1 -0.1,0 -0.1,0 -0.2,0 0,0 -0.1,0 -0.1,0.1 -0.1,0 -0.1,-0.1 -0.2,-0.1 0,0 0,0 0,0 l -0.1,0.1 c 0,0 -0.1,0 -0.1,0 0,0 -0.1,0 -0.1,0 -0.3,0.2 -0.3,0.3 -0.3,0.3 0,0.1 0,0.1 0.1,0.1 0,0 0,0 -0.1,0.1 0,0 0,0 0,0 v 0 0 c -0.1,0.1 -0.2,0.2 -0.2,0.3 0,0 0,0.1 0.1,0.1 0.3,0.1 0.5,0.4 0.5,0.4 0,0 0,0 0,0 0,0 0.1,0.1 0.1,0.1 0,0 0,0 0,0 0,0 0,0 0,0 0,0 0,0 0,0 0,0 0,0 0,0 0,0 0.1,0 0.1,-0.1 0,0 0,-0.1 0.1,-0.1 0.1,-0.1 0.1,-0.2 0.2,-0.2 0.5,-0.4 0.4,-0.6 0.4,-0.6 z"
   id="path182" />
<path
   class="st0"
   d="m 30.43094,27.5 -0.2,-0.1 c -0.6,-0.4 -1.8,-1.1 -2.1,-1.3 -0.1,-0.1 -0.4,-0.3 -0.7,-0.5 h -0.1 c -0.7,-0.5 -1.5,-1 -2,-1.2 -0.1,-0.1 -0.2,-0.1 -0.4,-0.2 -0.4,-0.2 -0.9,-0.5 -1.3,-0.7 -0.2,-0.1 -0.3,-0.2 -0.5,-0.3 -0.2,-0.1 -0.3,-0.2 -0.5,-0.3 0,0 -0.1,0 -0.1,0 0,0 0.1,0 0.1,0.1 -0.1,0 -0.1,0 -0.2,0.1 -0.1,0 -0.1,0.1 -0.1,0.1 0,0.1 0.1,0.1 0.2,0.2 0.1,0 0.2,0.1 0.2,0.1 0,0 0,0 0.1,0 0.3,0.2 0.7,0.4 1,0.6 0.4,0.2 0.8,0.4 1.2,0.6 0.5,0.2 1.3,0.8 1.9,1.2 v 0 c 0.3,0.2 0.6,0.4 0.8,0.5 0.5,0.3 2.3,1.4 2.3,1.4 0,0 0.1,0 0.1,0 0.1,0 0.2,0 0.2,-0.1 0,-0.1 0,-0.1 0,-0.2 0.2,0.1 0.2,0 0.1,0 z"
   id="path184" />
<g
   id="g190"
   transform="translate(-17.26906,-1.8)">
	<path
   class="st1"
   d="m 46.6,27.4 c 0,0 0,0 0,0 0,0 0,0 0,0 0,-0.3 0.8,-1.9 1.3,-2.6 0.4,-0.6 1,-1.6 1.5,-2.5 0.2,-0.4 0.4,-0.7 0.5,-0.9 0.3,-0.4 0.8,-1.5 1.3,-2.4 0.3,-0.6 0.7,-1.2 0.8,-1.5 0.4,-0.7 2,-3.6 2,-3.6 0,0 0,0 0.1,0 0,0 0,0 0,0.1 0,0 -1.6,2.9 -2,3.6 -0.2,0.3 -0.5,0.9 -0.8,1.5 -0.5,0.9 -1,1.9 -1.3,2.4 -0.1,0.2 -0.3,0.5 -0.5,0.9 -0.5,0.8 -1.1,1.9 -1.5,2.5 -0.6,0.9 -1.3,2.2 -1.4,2.5 0.1,0 0,0 0,0 z"
   id="path186" />
	<path
   class="st1"
   d="m 46.6,27.4 c 0,0 0,0 0,0 0,0 -0.1,0 0,0 -0.1,-0.4 0.9,-2 1.2,-2.7 0.4,-0.6 1,-1.6 1.5,-2.5 0.2,-0.4 0.4,-0.7 0.5,-0.9 0.3,-0.4 0.8,-1.5 1.3,-2.4 v -0.1 c 0.3,-0.6 0.6,-1.2 0.8,-1.5 0.4,-0.7 2,-3.6 2,-3.6 0,0 0.1,-0.1 0.1,0 0,0 0.1,0.1 0,0.1 0,0 0,0.1 -0.1,0.2 -0.4,0.7 -1.6,2.8 -1.9,3.4 -0.2,0.3 -0.5,0.9 -0.8,1.5 v 0 c -0.5,0.9 -1,1.9 -1.3,2.4 -0.1,0.2 -0.3,0.4 -0.4,0.7 l -0.1,0.2 c -0.5,0.8 -1.1,1.9 -1.5,2.5 -0.5,1.2 -1.2,2.5 -1.3,2.7 0.1,0 0.1,0 0,0 z m 7.5,-13.5 c 0,0 0,0 0,0 0,0 -1.7,2.9 -2,3.6 -0.2,0.3 -0.5,0.8 -0.8,1.4 V 19 c -0.5,0.9 -1,1.9 -1.3,2.4 -0.1,0.2 -0.3,0.5 -0.5,0.9 -0.5,0.8 -1.1,1.9 -1.5,2.5 -0.5,0.8 -1.3,2.3 -1.3,2.5 0,0 0,0 0,0 v 0 c 0,0 0,0 0,0 0,-0.2 0.7,-1.6 1.3,-2.5 0.4,-0.6 1,-1.6 1.5,-2.5 l 0.1,-0.2 c 0.2,-0.3 0.3,-0.5 0.4,-0.7 0.3,-0.4 0.8,-1.5 1.3,-2.3 v 0 c 0.3,-0.6 0.7,-1.2 0.8,-1.5 0.3,-0.6 1.5,-2.7 1.9,-3.4 0,-0.2 0.1,-0.3 0.1,-0.3 0,0 0,0 0,0 0,0 0,0 0,0 z"
   id="path188" />
</g>
<g
   id="g200"
   transform="translate(-17.26906,-1.8)">
	<path
   class="st1"
   d="m 37.3,15.9 c -0.3,0.4 -0.5,0.9 -0.7,1.2 -0.3,0.5 -0.7,1.1 -1,1.6 -0.1,0.2 -0.2,0.4 -0.3,0.5 -0.2,0.3 -1.1,2 -1.2,2 0,0 0,0.1 0,0.1 0,0 0,0 0,0 0,0 0,0 0,0 0,0 1,-1.7 1.2,-2 0.1,-0.1 0.2,-0.3 0.3,-0.5 0.3,-0.5 0.7,-1.1 1,-1.6 0.1,-0.3 0.4,-0.6 0.6,-1 0.1,-0.2 0.1,-0.3 0.1,-0.3 z"
   id="path192" />
	<path
   class="st1"
   d="m 42.3,7.8 c -0.1,-0.1 -0.1,-0.1 0,0 -0.1,0 -0.6,0.9 -0.9,1.2 -0.2,0.2 -0.4,0.7 -0.7,1.1 -0.2,0.3 -0.3,0.5 -0.4,0.7 -0.1,0.1 -0.2,0.3 -0.2,0.4 -0.2,0.3 -0.3,0.6 -0.6,0.9 -0.3,0.4 -0.8,1.4 -0.8,1.5 0,0 -0.6,0.9 -0.7,1.1 l -0.1,0.2 c -0.1,0.2 -0.3,0.5 -0.5,0.8 0,0 0,0 0,0 0,0 0,0 0,0.1 0.2,-0.3 0.4,-0.7 0.5,-0.8 L 38,14.8 c 0.1,-0.1 0.7,-1.1 0.7,-1.1 0,0 0.4,-1.1 0.8,-1.5 0.2,-0.3 0.4,-0.6 0.6,-0.9 0.1,-0.1 0.1,-0.2 0.2,-0.4 0.1,-0.2 0.3,-0.5 0.4,-0.7 0.3,-0.5 0.6,-1 0.7,-1.2 0.3,-0.3 0.9,-1.2 0.9,-1.2 0,0 0,0 0,0 z"
   id="path194" />
	<path
   class="st1"
   d="m 42.3,7.8 c 0,0 0,-0.1 0,0 -0.1,-0.1 -0.1,-0.1 -0.2,0 v 0 C 42,8 41.6,8.7 41.3,8.9 41.1,9.1 40.9,9.6 40.6,10 c -0.2,0.3 -0.3,0.5 -0.4,0.7 -0.1,0.1 -0.1,0.2 -0.2,0.4 v 0 c -0.2,0.3 -0.3,0.6 -0.6,0.9 -0.3,0.4 -0.8,1.4 -0.8,1.5 v 0 c -0.4,0.6 -0.6,1 -0.6,1.1 l -0.1,0.2 c -0.1,0.2 -0.3,0.4 -0.4,0.7 0,0 0,0 0,0.1 0,0 0,0 0,0 0.2,-0.3 0.3,-0.6 0.5,-0.8 l 0.1,-0.2 c 0,-0.1 0.3,-0.4 0.6,-1 v 0 0 c 0,0 0.4,-1.1 0.8,-1.5 0.2,-0.3 0.4,-0.6 0.6,-0.9 v 0 c 0.1,-0.1 0.1,-0.2 0.2,-0.4 0.1,-0.2 0.3,-0.5 0.4,-0.7 C 41,9.6 41.2,9.2 41.4,9 41.6,8.7 42.1,8 42.2,7.8 v 0 c 0,0 0,0 0.1,0 -0.1,0 -0.1,0 0,0 -0.1,0 -0.1,0 0,0 0,0 0,0 0,0 -0.1,0 -0.6,0.9 -0.9,1.2 -0.2,0.2 -0.4,0.7 -0.6,1.1 v 0 c -0.1,0.3 -0.3,0.5 -0.4,0.7 -0.1,0.1 -0.2,0.3 -0.2,0.4 -0.2,0.3 -0.3,0.6 -0.6,0.9 -0.3,0.4 -0.7,1.4 -0.8,1.5 0,0 -0.1,0.1 -0.1,0.2 -0.2,0.3 -0.5,0.8 -0.5,0.9 L 38,14.8 c -0.1,0.2 -0.3,0.5 -0.5,0.8 0,0 0,0 0,0.1 0,0 0,0 0,0.1 0.2,-0.4 0.4,-0.7 0.5,-0.9 l 0.1,-0.2 c 0.1,-0.1 0.3,-0.6 0.5,-0.9 0.1,-0.1 0.1,-0.2 0.1,-0.2 v 0 c 0,0 0.4,-1.1 0.8,-1.5 0.3,-0.3 0.4,-0.6 0.6,-0.9 0.1,-0.1 0.1,-0.2 0.2,-0.4 0.1,-0.2 0.3,-0.5 0.4,-0.7 v 0 c 0.2,-0.4 0.5,-0.9 0.6,-1.1 0.4,-0.3 1,-1.1 1,-1.2 0,0 0,0 0,0 z"
   id="path196" />
	<path
   class="st1"
   d="m 37.3,16 c -0.2,0.4 -0.5,0.8 -0.6,1.1 -0.3,0.5 -0.7,1.1 -1,1.6 v 0 c -0.1,0.2 -0.2,0.4 -0.3,0.5 -0.2,0.3 -1.1,2 -1.2,2 0,0 0,0 0,0 0,0 0,0 0,0 0,0 0,0 0,0 v 0 c 0.1,-0.2 1,-1.7 1.1,-2 0.1,-0.1 0.2,-0.3 0.3,-0.5 v 0 c 0.3,-0.5 0.7,-1.1 1,-1.6 0.2,-0.3 0.4,-0.7 0.7,-1.1 0,-0.1 0,-0.2 0,-0.2 -0.3,0.5 -0.5,0.9 -0.7,1.2 -0.3,0.5 -0.7,1.1 -1,1.6 v 0 c -0.1,0.2 -0.2,0.4 -0.3,0.5 -0.2,0.3 -1,1.7 -1.1,2 v 0 c 0,0 0,0 0,0.1 0,0 0,0 0,0.1 0,0 0,0 0,0 0,0 0.1,0 0.1,0 0,0 1,-1.7 1.2,-2 0.1,-0.1 0.2,-0.3 0.3,-0.5 v 0 c 0.3,-0.5 0.7,-1.1 1,-1.6 0.1,-0.2 0.3,-0.6 0.6,-1 -0.1,-0.1 -0.1,-0.1 -0.1,-0.2 z"
   id="path198" />
</g>
<g
   id="g216"
   transform="translate(-17.26906,-1.8)">
	<path
   class="st1"
   d="m 42.1,20.1 c -0.2,0.4 -0.5,0.8 -0.7,1.1 -0.1,0.2 -0.3,0.4 -0.4,0.6 -0.2,0.3 -0.4,0.6 -0.5,0.9 -0.2,0.4 -1,1.8 -1,1.8 0,0 0,0.1 0,0.1 0,0 0,0 0,0 0,0 0,0 0,0 0,0 0.8,-1.4 1,-1.8 0.1,-0.2 0.3,-0.6 0.5,-0.8 0.1,-0.2 0.3,-0.4 0.4,-0.6 0.2,-0.3 0.4,-0.7 0.6,-1 0.1,-0.3 0.1,-0.3 0.1,-0.3 z"
   id="path202" />
	<path
   class="st1"
   d="m 43.5,17.8 c 0,0 0,0 0,0 -0.2,0.3 -0.9,1.6 -1.1,1.9 0,0.1 -0.1,0.1 -0.1,0.2 0,0 0,0 0,0.1 0,0 0,0 0,0 0.1,-0.1 0.1,-0.2 0.2,-0.2 0.2,-0.3 1,-1.5 1.1,-1.8 0,0 0,-0.1 0,-0.1 0,-0.1 -0.1,-0.1 -0.1,-0.1 z"
   id="path204" />
	<path
   class="st1"
   d="m 47.6,10.5 c 0,0 -0.1,0 0,0 -0.2,0.1 -0.4,0.5 -0.5,0.7 -0.1,0.2 -0.2,0.3 -0.2,0.4 -0.1,0.2 -1.1,2 -1.3,2.5 -0.1,0.3 -0.4,0.8 -0.7,1.3 -0.2,0.4 -0.4,0.7 -0.5,0.9 -0.2,0.3 -0.4,0.8 -0.7,1.1 0,0 0,0 0,0 0,0 0.1,0 0.1,0 0,0 0.1,0 0.1,-0.1 0.2,-0.3 0.4,-0.7 0.6,-1 0.1,-0.2 0.3,-0.6 0.5,-0.9 0.3,-0.5 0.6,-1 0.7,-1.3 0.2,-0.5 1.1,-2.3 1.3,-2.5 0.1,-0.1 0.1,-0.2 0.2,-0.4 0.1,-0.2 0.3,-0.5 0.4,-0.7 0,0 0,0 0,0 z"
   id="path206" />
	<path
   class="st1"
   d="m 42.1,20.1 c -0.2,0.3 -0.5,0.8 -0.6,1.1 -0.1,0.2 -0.3,0.4 -0.4,0.6 v 0 c -0.2,0.3 -0.4,0.6 -0.5,0.8 -0.2,0.4 -1,1.7 -1,1.8 0,0 0,0 0,0 0,0 0,0 0,0 0,0 0,0 0,0 0,0 0.8,-1.4 1,-1.8 0.1,-0.3 0.3,-0.6 0.5,-0.9 v 0 c 0.1,-0.2 0.3,-0.4 0.4,-0.6 0.1,-0.2 0.4,-0.6 0.6,-1 0,-0.1 0,-0.1 0,-0.1 -0.2,0.4 -0.5,0.8 -0.7,1.1 -0.1,0.2 -0.2,0.4 -0.4,0.6 v 0 c -0.2,0.3 -0.4,0.6 -0.5,0.9 -0.2,0.4 -1,1.8 -1,1.8 0,0 0,0 0,0.1 0,0 0,0 0,0.1 0,0 0,0 0,0 0,0 0.1,0 0.1,0 0,-0.1 0.8,-1.4 1,-1.8 0.1,-0.2 0.3,-0.5 0.5,-0.8 v 0 c 0.1,-0.2 0.3,-0.4 0.4,-0.6 0.2,-0.4 0.5,-0.9 0.6,-1.3 0.1,0.1 0,0.1 0,0 z"
   id="path208" />
	<path
   class="st1"
   d="m 42.3,19.9 c 0.1,-0.1 0.1,-0.2 0.1,-0.2 0.2,-0.3 1,-1.5 1.1,-1.8 0,0 0,0 0,-0.1 0,0 0,0 -0.1,0 0,0 0,0.1 0,0.1 -0.1,0.3 -0.9,1.5 -1.1,1.8 0,0 0,0 0,0.2 -0.1,-0.1 0,-0.1 0,0 z"
   id="path210" />
	<path
   class="st1"
   d="m 43.6,17.8 c 0,0 -0.1,0.1 0,0 -0.2,0.3 -0.9,1.6 -1.1,1.9 0,0.1 -0.1,0.1 -0.1,0.2 0,0 0,0 0,0 0,0 0,0.1 0,0.1 0.1,-0.1 0.1,-0.2 0.2,-0.3 0.1,-0.3 0.9,-1.5 1,-1.9 0,0.1 0,0 0,0 0,0 0,0 0,0 z"
   id="path212" />
	<path
   class="st1"
   d="m 47.6,10.4 c 0,0 -0.1,0 -0.1,0 -0.1,0.1 -0.3,0.5 -0.4,0.7 -0.1,0.2 -0.2,0.3 -0.2,0.4 -0.1,0.2 -1.1,2 -1.3,2.5 -0.1,0.3 -0.4,0.8 -0.7,1.3 v 0 c -0.2,0.4 -0.4,0.7 -0.5,0.9 -0.2,0.3 -0.4,0.8 -0.7,1.1 0,0 0,0.1 -0.1,0.1 0,0 0.1,-0.1 0.1,-0.1 0.2,-0.3 0.5,-0.8 0.6,-1.1 0.1,-0.2 0.3,-0.6 0.5,-0.9 v 0 c 0.3,-0.5 0.6,-1 0.7,-1.3 0.2,-0.5 1.1,-2.3 1.3,-2.5 0.1,-0.1 0.1,-0.2 0.2,-0.4 0.3,-0.2 0.4,-0.5 0.6,-0.7 -0.1,0.1 0,0.1 0,0 0,0.1 0,0.1 0,0 0,0.1 0,0.1 0,0 0,0.1 0,0.1 0,0 -0.2,0.2 -0.3,0.5 -0.5,0.8 -0.1,0.2 -0.2,0.4 -0.2,0.4 -0.1,0.2 -1.1,2 -1.3,2.5 -0.1,0.3 -0.4,0.8 -0.7,1.3 v 0 c -0.2,0.4 -0.4,0.7 -0.5,0.9 -0.1,0.3 -0.4,0.7 -0.6,1 0,0 0.1,-0.1 0.1,-0.1 0.2,-0.3 0.4,-0.7 0.5,-0.9 0.1,-0.2 0.3,-0.6 0.5,-0.9 v 0 c 0.3,-0.5 0.6,-1 0.7,-1.3 0.2,-0.5 1.1,-2.3 1.3,-2.4 0.1,-0.1 0.1,-0.2 0.2,-0.4 0.1,-0.3 0.3,-0.6 0.4,-0.7 0.1,0 0.1,-0.1 0.1,-0.2 0,0.1 0,0.1 0,0 z"
   id="path214" />
</g>
<g
   id="g222"
   transform="translate(-17.26906,-1.8)">
	<path
   d="m 43.7,21 c -0.2,0 -0.3,-0.1 -0.3,-0.3 0,-0.2 0.1,-0.3 0.3,-0.3 0.2,0 0.3,0.1 0.3,0.3 0,0.1 -0.1,0.3 -0.3,0.3 z m 0,-0.5 c -0.1,0 -0.2,0.1 -0.2,0.2 0,0.1 0.1,0.2 0.2,0.2 0.1,0 0.2,-0.1 0.2,-0.2 0,-0.1 -0.1,-0.2 -0.2,-0.2 z"
   id="path218" />
	<path
   d="m 43.7,21 c -0.2,0 -0.3,-0.1 -0.3,-0.3 0,-0.2 0.1,-0.3 0.3,-0.3 0.2,0 0.3,0.1 0.3,0.3 0,0.2 -0.1,0.3 -0.3,0.3 z m 0,-0.6 c -0.1,0 -0.2,0.1 -0.2,0.2 0,0.1 0.1,0.2 0.2,0.2 0.1,0 0.2,-0.1 0.2,-0.2 0.1,-0.1 -0.1,-0.2 -0.2,-0.2 z m 0,0.5 c -0.1,0 -0.2,-0.1 -0.2,-0.2 0,-0.1 0.1,-0.2 0.2,-0.2 0.1,0 0.2,0.1 0.2,0.2 0,0.1 -0.1,0.2 -0.2,0.2 z m 0,-0.4 c -0.1,0 -0.1,0.1 -0.1,0.1 0,0 0.1,0.1 0.1,0.1 0.1,0 0.1,-0.1 0.1,-0.1 0,0 0,-0.1 -0.1,-0.1 z"
   id="path220" />
</g>
<g
   id="g228"
   transform="translate(-17.26906,-1.8)">
	<path
   class="st0"
   d="m 31.7,14.8 -0.1,0.1 v 0 l 0.1,-0.1 c -0.1,-0.1 -0.1,-0.1 -0.2,-0.1 -0.1,0 -0.2,0.1 -0.3,0.2 l -0.1,0.2 c -0.1,0.1 -0.2,0.3 -0.2,0.4 l -0.1,0.1 c -0.1,0.1 -0.2,0.3 -0.2,0.4 -0.1,0.2 -0.5,0.9 -0.6,1.1 L 29.4,18 c 0,0.1 0,0.1 0,0.2 0,0.1 0.1,0.1 0.1,0.1 0,0 0.1,0 0.2,0 0,0.1 0.1,0.1 0.1,0.1 0,0 0.1,0 0.1,0 0.1,0 0.2,0 0.2,-0.1 0,0 1.3,-2.4 1.5,-2.7 l 0.2,-0.3 c 0.1,-0.1 0.2,-0.3 0,-0.5 0,0.1 -0.1,0.1 -0.1,0 z"
   id="path224" />
	<path
   class="st0"
   d="m 37.6,5 c 0,0 0,0 0,0 V 5 5 C 37.5,4.9 37.4,4.9 37.3,4.9 37.3,4.9 37,5 36.9,5.2 L 36.8,5.3 C 36.7,5.4 36.6,5.7 36.4,6 36.3,6.2 36.2,6.4 36.1,6.6 36,6.9 35.8,7.1 35.7,7.4 35.5,7.9 35.1,8.5 34.9,8.9 34.8,9.1 34.6,9.4 34.5,9.6 v 0.1 c -0.2,0.3 -0.3,0.6 -0.5,0.8 -0.3,0.5 -0.7,1.1 -0.9,1.5 -0.2,0.3 -0.9,1.5 -1.2,2 0,0.1 -0.1,0.1 -0.1,0.2 v 0 c 0,0.1 -0.1,0.2 -0.1,0.3 0,0.1 0,0.2 0.1,0.2 0,0 0,0 0,0 0,0 0,0.1 0.1,0.2 v 0 H 32 c 0.1,0 0.2,-0.1 0.3,-0.3 l 0.2,-0.3 c 0.1,-0.1 0.1,-0.2 0.2,-0.4 0.2,-0.4 1,-1.5 1.3,-2 0.1,-0.2 0.3,-0.4 0.5,-0.7 v -0.1 c 0.2,-0.4 0.5,-0.8 0.6,-1 0.2,-0.3 0.8,-1.4 1.1,-2 v 0 C 36.3,8 36.3,7.9 36.4,7.8 36.5,7.7 36.6,7.4 36.8,7.1 37.1,6.6 37.4,6 37.6,5.7 37.7,5.5 37.8,5.2 37.6,5 Z"
   id="path226" />
</g>
<circle
   cx="31.830938"
   cy="12.7"
   r="0.69999999"
   id="circle230" />
<circle
   cx="26.330938"
   cy="18.800001"
   r="0.69999999"
   id="circle232" />
<circle
   cx="27.23094"
   cy="22.800001"
   r="0.69999999"
   id="circle234" />
<circle
   cx="17.830938"
   cy="11.2"
   r="0.60000002"
   id="circle236" />
<path
   class="st3"
   d="m 5.1309401,14.6 c -0.2,0.7 -0.3,1.4 -0.3,2.1 0,0.7 0.2,1.5 0.7,2 0.5,0.5 1.3,0.8 1.9,0.6 0.3,-0.1 0.5,-0.2 0.8,-0.2 0.3,0 0.5,0.2 0.8,0.3 0.3,0.1 0.7,0 0.7,-0.3"
   id="path238" />
<path
   d="m 9.5309401,19.2 c -0.1,-0.1 -0.1,-0.2 0,-0.3 0.1,-0.1 0.2,-0.2 0.3,-0.2 0.5999999,-0.4 0.7999999,-1.2 0.8999999,-1.9 0,-0.1 0,-0.2 0.1,-0.2 0.1,0 0.1,0 0.2,0 0.1,0 0.1,0.1 0.1,0.1 0.1,0.1 0.1,0.3 0.1,0.5 0,0.8 -0.2,1.5 -0.6,2.2 -0.1,0.1 -0.2,0.3 -0.3,0.3 -0.1,0.1 -0.3,0.1 -0.3999999,0 -0.1,-0.1 -0.2,-0.2 -0.2,-0.3 0,-0.1 0,-0.2 -0.1,-0.3"
   id="path240" />
<path
   class="st0"
   d="m 26.33094,18.4 c -0.2,0 -0.5,-0.1 -0.7,-0.3 -0.2,-0.2 -0.3,-0.4 -0.4,-0.8 -0.1,-0.5 -0.2,-1 -0.2,-1.6 0,-0.3 -0.1,-0.7 -0.1,-1 -0.1,-0.6 -0.4,-1.8 -1.4,-2.3 -0.6,-0.3 -1.2,-0.2 -1.8,-0.2 -0.1,0 -0.2,0 -0.3,0 -0.5,0.1 -0.9,0.1 -1.4,0.1 -0.7,-0.1 -1.3,-0.5 -1.7,-1.1 h -0.2 l -0.5,0.2 v 0.1 c 0.2,0.6 0.7,1.2 1.4,1.5 0.5,0.2 1.2,0.3 2,0.3 0.1,0 0.2,0 0.3,0 0.4,0 0.9,-0.1 1.3,0.1 0.5,0.2 0.9,0.6 1.1,1.2 0.2,0.5 0.2,1 0.3,1.5 v 0.3 c 0.1,0.6 0.2,1.2 0.6,1.8 0.4,0.6 1,1 1.6,1 0,0 0,0 0.1,0 h 0.1 l 0.3,-0.6 z"
   id="path242" />
<path
   class="st0"
   d="m 30.33094,16.4 c -0.2,-0.3 -0.4,-0.6 -0.4,-1 -0.1,-0.5 0.2,-1.2 0.7,-1.6 0.4,-0.3 1,-0.5 1.5,-0.7 0,-0.1 -0.1,-0.2 -0.1,-0.3 -0.1,-0.1 -0.1,-0.2 -0.1,-0.3 h -0.1 v 0 c -0.8,0.2 -1.6,0.5 -2.2,1.2 -0.7,0.7 -0.9,1.7 -0.5,2.4 0.1,0.2 0.2,0.4 0.4,0.6 0.1,0.1 0.2,0.2 0.3,0.4 0.5,0.8 0.5,2.1 -0.1,3.1 -0.5,1 -1.4,1.7 -2.3,2.4 h -0.1 l 0.3,0.4 h 0.1 c 1.3,-0.8 2.2,-1.6 2.8,-2.5 0.7,-1.2 0.8,-2.6 0.3,-3.6 -0.3,-0.2 -0.4,-0.3 -0.5,-0.5 z"
   id="path244" />
<path
   d="m 10.93094,18.6 c -0.1,0 -0.1,0.1 -0.1,0.1 0,0 0,0.1 0,0.1 0.1,0.2 0.2,0.3 0.4,0.4 0,0 0.1,0 0.1,0 0,0 0,0 0,-0.1 0,-0.1 0,-0.1 0,-0.2 0,-0.1 -0.1,-0.1 -0.1,-0.2 0,-0.1 -0.3,0 -0.3,-0.1"
   id="path246" />
<path
   class="st5"
   d="m 8.4309401,10.6 c 1.3,0.9 2.6999999,1.7 4.0999999,2.4"
   id="path248" />
<path
   class="st5"
   d="m 12.53094,2.8 c 1.6,0.8 3.1,1.5 4.7,2.3"
   id="path250" />
<path
   class="st5"
   d="m 24.33094,9 c 0.9,0.5 1.8,0.9 2.7,1.4"
   id="path252" />
<path
   class="st5"
   d="m 23.73094,10.3 c 0.6,0.4 1.2,0.8 1.8,1.1"
   id="path254" />
<path
   class="st5"
   d="m 31.83094,14 c 0.6,0.3 1.2,0.5 1.9,0.8"
   id="path256" />
<path
   class="st5"
   d="m 30.93094,15 c 0.7,0.4 1.4,0.7 2.2,1.1"
   id="path258" />
<circle
   class="st2"
   cx="17.830938"
   cy="11.2"
   r="0.2"
   id="circle260" />
<circle
   class="st2"
   cx="26.330938"
   cy="18.800001"
   r="0.30000001"
   id="circle262" />
<circle
   class="st2"
   cx="31.830938"
   cy="12.7"
   r="0.30000001"
   id="circle264" />
<circle
   class="st2"
   cx="27.23094"
   cy="22.800001"
   r="0.30000001"
   id="circle266" />
<polygon
   points="29.7,18.2 36.6,6.7 37.3,6.9 30.6,18.6 "
   id="polygon268"
   transform="translate(-17.26906,-1.8)" />
<path
   d="m 23.43094,7 -7.1,12.1 c 0.1,0 0.2,0.1 0.3,0.2 h 0.4 l 7.1,-12.1 z"
   id="path270" />
<polygon
   points="46.8,11.7 39.4,24.7 39.1,24.1 46.3,11.5 "
   id="polygon272"
   transform="translate(-17.26906,-1.8)" />
<path
   class="st0"
   d="m 19.53094,4.7 c -2,-1.3 -4.2,-2.4 -6.5,-3.4 l -0.1,0.2 c 0,0 0,0 0,0 -0.3,-0.1 -0.6,-0.2 -0.9,-0.1 -0.2,0.1 -0.3,0.3 -0.4,0.5 -1.7999999,3.5 -3.7999999,7.5 -5.5999999,11 h 0.5 c 0.9,-1.7 2,-3.9 2.8,-5.6 0.4,-0.8 0.8999999,-1.7 1.2999999,-2.5 0.3,-0.7 0.8,-1.3 1.1,-2 0.2,-0.3 0.4,-0.7 0.8,-0.7 0.3,0 0.5,0.1 0.7,0.2 1.9,1 3.8,2 5.6,2.9 0.1,0 0.1,-0.1 0.1,-0.2 0.1,0 0.1,0.1 0.2,0.1 z"
   id="path274" />
<path
   class="st0"
   d="m 36.03094,13 c 0,0 -1,-0.5 -1.4,-0.8 l -0.4,-0.2 c -0.4,-0.2 -0.9,-0.5 -1.2,-0.7 -0.2,-0.1 -0.4,-0.2 -0.6,-0.3 h -0.1 c -0.3,-0.1 -0.5,-0.2 -0.6,-0.3 0,0 -1.4,-0.8 -1.8,-0.9 -0.2,-0.1 -0.3,-0.1 -0.4,-0.1 -0.1,0 -0.3,-0.1 -0.4,-0.1 -0.2,-0.1 -0.3,-0.1 -0.5,-0.2 -0.1,-0.1 -0.3,-0.2 -0.4,-0.2 -0.2,-0.1 -0.5,-0.2 -0.8,-0.4 -0.2,-0.1 -0.4,-0.2 -0.6,-0.3 -0.2,-0.1 -0.3,-0.2 -0.5,-0.2 -0.2,-0.1 -0.3,-0.1 -0.5,-0.2 -0.4,-0.2 -1.2,-0.6 -1.5,-0.8 -0.3,-0.1 -1.2,-0.6 -1.7,-0.8 -0.2,-0.1 -0.6,-0.3 -0.9,-0.5 -0.4,-0.2 -0.7,-0.4 -1.1,-0.6 -0.6,-0.3 -1.1,-0.7 -1.1,-0.7 0,0 -0.1,-0.1 -0.2,-0.1 -0.1,0 -0.1,0 -0.2,0.1 0,0 -0.1,0.1 -0.1,0.2 l -0.7,-0.7 v 0.5 l 17.3,8.9 0.2,-0.3 c 0,0 0,0 0,0 0,0 0.1,0 0.1,0 0.1,0 0.2,-0.1 0.2,-0.1 0,-0.1 0,-0.1 0,-0.2 0,0.1 0,0 -0.1,0 z"
   id="path276" />
<g
   id="g280"
   transform="translate(-17.26906,-1.8)">
	<path
   class="st0"
   d="m 37,11.8 c -0.2,-0.9 -0.8,-1.7 -1.7,-2.2 -1,-0.5 -2.2,-0.4 -3,0.1 -0.2,0.1 -0.4,0.3 -0.6,0.4 -0.4,0.3 -0.9,0.6 -1.4,0.8 -1.1,0.4 -2.2,0.3 -2.8,-0.4 l 0.8,-0.8 c 0.4,0.4 1,0.3 1.5,0.1 0.4,-0.2 0.8,-0.4 1.2,-0.7 0.2,-0.2 0.5,-0.3 0.7,-0.5 1.2,-0.7 2.8,-0.8 4.1,-0.1 1.3,0.6 2.2,1.7 2.4,3 z"
   id="path278" />
</g>
<circle
   class="st0"
   cx="10.530939"
   cy="8.3000002"
   r="0.80000001"
   id="circle282" />
<circle
   class="st2"
   cx="10.530939"
   cy="8.3000002"
   r="0.30000001"
   id="circle284" />
<circle
   class="st0"
   cx="20.23094"
   cy="9.8999996"
   r="0.80000001"
   id="circle286" />
<circle
   class="st2"
   cx="20.23094"
   cy="9.8999996"
   r="0.30000001"
   id="circle288" />
<g
   id="g292"
   transform="translate(-17.26906,-1.8)">
	<path
   class="st0"
   d="m 23.7,39.3 c -0.1,0 -0.3,0 -0.4,0 -0.1,0 -0.2,-0.1 -0.2,-0.2 0,-0.1 0,-0.2 0.1,-0.3 0.6,-0.4 1,-0.9 1.3,-1.4 -0.4,0.1 -0.8,0.2 -1,0.5 -0.1,0.1 -0.2,0.1 -0.3,0 -0.1,0 -0.1,-0.1 -0.1,-0.2 0,-0.5 0.2,-1 0.4,-1.5 -0.1,0.1 -0.3,0.2 -0.4,0.3 -0.1,0.1 -0.2,0.1 -0.3,0 -0.1,-0.1 -0.1,-0.2 -0.1,-0.3 0.2,-0.7 0.8,-1.3 1.8,-1.6 0.2,-0.1 0.4,-0.1 0.5,-0.2 0.2,-0.1 0.3,-0.1 0.4,-0.2 -0.2,0 -0.4,-0.1 -0.6,-0.2 -0.1,0 -0.1,-0.1 -0.1,-0.2 0,-0.1 0,-0.1 0,-0.2 0.1,-0.2 0.2,-0.4 0.3,-0.5 -0.3,0.1 -0.6,0.2 -0.8,0.3 -0.1,0 -0.2,0 -0.3,-0.1 -0.1,-0.1 -0.1,-0.2 0,-0.3 0.2,-0.2 0.5,-0.4 0.7,-0.6 0.1,-0.1 0.2,-0.2 0.3,-0.2 0.1,-0.1 0.3,-0.2 0.4,-0.4 -0.4,0.2 -0.8,0.3 -1.2,0.3 -0.1,0 -0.2,0 -0.2,-0.1 0,-0.1 0,-0.2 0,-0.3 0.7,-1 1.2,-1.9 1.6,-2.8 -0.4,0.2 -0.8,0.3 -1.2,0.4 -0.1,0 -0.2,-0.1 -0.3,-0.2 0,-0.1 0,-0.2 0.1,-0.3 0.5,-0.2 0.8,-0.8 0.9,-1.2 l 0.1,-0.2 c 0.1,-0.3 0.3,-0.7 0.5,-1 0.3,-0.4 0.7,-0.6 1,-0.7 l 0.2,0.4 c -0.4,0.2 -0.7,0.3 -0.8,0.6 -0.2,0.3 -0.3,0.6 -0.4,0.9 l -0.1,0.2 c -0.1,0.2 -0.2,0.5 -0.4,0.7 0.2,-0.1 0.4,-0.3 0.6,-0.4 0.1,-0.1 0.2,-0.1 0.3,0 0.1,0.1 0.1,0.2 0.1,0.3 -0.4,1 -0.9,2.1 -1.7,3.2 0.4,-0.1 0.8,-0.3 1.2,-0.6 0.1,-0.1 0.2,-0.1 0.3,0 0.1,0 0.1,0.1 0.1,0.2 -0.1,0.6 -0.7,1.2 -0.9,1.3 0,0 -0.1,0 -0.1,0.1 0,0 0.1,0 0.1,0 0.1,0 0.1,0 0.2,0.1 0,0.1 0.1,0.1 0.1,0.2 0,0.3 -0.2,0.5 -0.3,0.8 0.4,0.1 0.8,0.1 1.2,-0.1 0.1,0 0.2,0 0.3,0.1 0.1,0.1 0,0.2 -0.1,0.3 -0.5,0.4 -1.1,0.6 -1.6,0.8 -0.2,0.1 -0.4,0.1 -0.5,0.2 -0.4,0.1 -0.8,0.4 -1.1,0.7 0.2,-0.1 0.3,-0.1 0.5,-0.1 0.1,0 0.2,0 0.3,0.1 0,0.1 0,0.2 0,0.3 -0.3,0.3 -0.6,0.8 -0.7,1.3 0.4,-0.2 0.8,-0.3 1.3,-0.3 v 0 c 0.1,0 0.2,0 0.2,0.1 0,0.1 0.1,0.1 0,0.2 -0.3,0.6 -0.6,1.2 -1.1,1.6 0.2,0 0.4,-0.1 0.6,-0.2 0.3,-0.2 0.4,-0.4 0.6,-0.7 0.1,-0.1 0.2,-0.2 0.2,-0.3 0.5,-0.6 1.2,-1.1 1.9,-1.3 0.1,0 0.2,0 0.3,0.1 0.1,0.1 0.1,0.2 0,0.3 -0.3,0.3 -0.5,0.7 -0.6,1 0,0.1 -0.1,0.2 -0.1,0.3 0.3,-0.5 0.8,-0.9 1.4,-1.2 0.1,0 0.2,-0.1 0.3,-0.1 0.2,-0.1 0.5,-0.2 0.6,-0.3 0.1,-0.1 0.2,-0.1 0.3,0 0.1,0 0.1,0.2 0.1,0.2 -0.1,0.4 -0.2,0.8 -0.4,1.1 0.3,-0.2 0.6,-0.4 0.8,-0.6 0.3,-0.4 0.6,-0.8 0.7,-1.5 C 31,35 31,34.4 31,33.8 c 0,-0.1 0.1,-0.2 0.1,-0.2 0.1,0 0.2,0 0.2,0 0.3,0.3 0.5,0.7 0.5,1.1 0.4,-0.3 0.8,-0.7 1,-1.2 0.3,-0.8 0.3,-1.6 0.3,-2.4 v -0.2 h 0.5 v 0.2 c 0,0.9 0,1.7 -0.4,2.6 -0.3,0.8 -0.9,1.3 -1.6,1.7 -0.1,0 -0.2,0 -0.2,0 -0.1,-0.1 -0.1,-0.1 -0.1,-0.2 0,-0.2 0,-0.4 0,-0.5 0,0.3 -0.1,0.7 -0.1,1 -0.2,0.7 -0.4,1.2 -0.8,1.7 -0.5,0.6 -1.3,0.9 -1.9,1.1 -0.1,0 -0.2,0 -0.3,-0.1 -0.1,-0.1 0,-0.2 0,-0.3 0.3,-0.3 0.6,-0.7 0.8,-1.1 0,0 -0.1,0 -0.1,0 -0.1,0 -0.2,0.1 -0.3,0.1 -0.7,0.3 -1.3,0.9 -1.5,1.7 0,0.1 -0.1,0.2 -0.2,0.2 -0.1,0 -0.2,0 -0.2,-0.1 -0.2,-0.4 -0.2,-0.9 0,-1.4 0,-0.1 0.1,-0.3 0.2,-0.4 -0.4,0.2 -0.7,0.5 -1,0.9 -0.1,0.1 -0.1,0.2 -0.2,0.3 -0.2,0.3 -0.4,0.6 -0.8,0.8 -0.4,0.1 -0.8,0.2 -1.2,0.2 z"
   id="path290" />
</g>
<g
   id="g296"
   transform="translate(-17.26906,-1.8)">
	<path
   class="st0"
   d="m 18.5,47.2 c -0.1,0 -0.2,-0.1 -0.2,-0.1 C 18,46.4 18,45.7 18.2,45 c 0.2,-0.6 0.6,-1 0.9,-1.5 0.3,-0.3 0.5,-0.6 0.7,-1 -0.5,0.1 -1.1,0.5 -1.3,1 0,0.1 -0.2,0.1 -0.3,0.1 -0.1,0 -0.2,-0.1 -0.2,-0.2 0,-0.5 0.3,-1.1 0.8,-1.6 0.2,-0.1 0.3,-0.3 0.5,-0.4 0.3,-0.2 0.5,-0.4 0.7,-0.7 0.3,-0.4 0.6,-0.9 0.7,-1.5 0.1,-0.3 0.1,-0.6 0.1,-0.9 -0.5,0.6 -1.1,1.1 -1.9,1.3 -0.1,0 -0.2,0 -0.3,-0.1 -0.1,-0.1 0,-0.2 0,-0.3 0.7,-0.8 1,-1.8 1.2,-2.9 v -0.1 c 0.1,-0.8 0.3,-1.6 0.6,-2.3 -0.2,0.2 -0.4,0.4 -0.6,0.6 -0.1,0.1 -0.1,0.1 -0.2,0.1 -0.1,0 -0.2,-0.1 -0.2,-0.1 -0.2,-0.6 -0.1,-1.3 0.3,-2 0.2,-0.3 0.4,-0.6 0.7,-0.9 0.1,-0.2 0.3,-0.4 0.4,-0.5 0.2,-0.3 0.4,-0.6 0.6,-1 -0.4,0.2 -0.8,0.3 -1.3,0.2 -0.1,0 -0.1,-0.1 -0.2,-0.2 0,-0.1 0,-0.2 0.1,-0.2 0.8,-0.8 1.4,-1.9 1.5,-3 0,-0.2 0,-0.4 0.1,-0.7 0,-0.3 0,-0.6 0.1,-1 0.1,-0.4 0.3,-1.1 1,-1.5 l 0.2,0.4 c -0.5,0.3 -0.7,0.8 -0.7,1.2 -0.1,0.3 -0.1,0.6 -0.1,0.9 0,0.2 0,0.5 -0.1,0.7 -0.1,1 -0.6,2 -1.3,2.9 0.3,0 0.6,-0.2 0.8,-0.5 0.1,-0.1 0.2,-0.1 0.3,-0.1 0.1,0 0.2,0.1 0.2,0.2 0.1,0.7 -0.3,1.4 -0.7,1.9 -0.1,0.2 -0.3,0.4 -0.4,0.6 -0.2,0.3 -0.5,0.6 -0.6,0.9 -0.2,0.4 -0.3,0.8 -0.3,1.1 0.3,-0.4 0.7,-0.6 1.1,-0.8 0.1,0 0.2,0 0.3,0 0.1,0.1 0.1,0.2 0,0.3 -0.5,0.9 -0.7,1.9 -0.9,2.9 v 0.1 c -0.2,0.8 -0.4,1.7 -0.8,2.4 0.6,-0.3 1,-0.9 1.3,-1.5 0,-0.1 0.1,-0.2 0.3,-0.1 0.1,0 0.2,0.1 0.2,0.2 0,0.7 0,1.4 -0.1,1.9 -0.1,0.7 -0.4,1.3 -0.8,1.7 -0.2,0.3 -0.5,0.5 -0.8,0.7 -0.2,0.1 -0.3,0.2 -0.5,0.4 0,0 -0.1,0.1 -0.1,0.1 0.3,-0.2 0.7,-0.3 1.1,-0.3 0.1,0 0.1,0 0.2,0.1 0,0.1 0.1,0.1 0,0.2 -0.2,0.6 -0.6,1 -0.9,1.5 -0.3,0.4 -0.7,0.8 -0.8,1.3 -0.1,0.3 -0.2,0.7 -0.1,1.1 0.5,-1.1 1.3,-2 2.3,-2.7 0.1,0 0.2,0 0.3,0 0.1,0 0.1,0.1 0.1,0.2 -0.1,0.6 -0.3,1.2 -0.7,1.6 1.6,-0.4 3.1,-1.5 3.9,-3 0,-0.1 0.1,-0.1 0.2,-0.1 0.1,0 0.2,0 0.2,0.1 0.2,0.3 0.3,0.8 0,1.3 -0.1,0.2 -0.2,0.4 -0.3,0.6 -0.1,0.1 -0.1,0.2 -0.2,0.4 0,0 0,0.1 -0.1,0.1 0.3,-0.3 0.7,-0.6 1.1,-0.8 0.4,-0.2 0.7,-0.3 1.1,-0.5 0.3,-0.1 0.6,-0.2 0.9,-0.4 0.7,-0.4 1.2,-0.8 1.5,-1.2 0.1,-0.1 0.2,-0.1 0.3,-0.1 0.1,0 0.2,0.1 0.2,0.2 0,0.5 -0.2,0.8 -0.4,1.2 -0.1,0.2 -0.3,0.3 -0.4,0.5 0.8,-0.1 1.6,-0.5 2.1,-1 0.7,-0.7 1.2,-1.8 1.1,-2.8 0,-0.1 0.1,-0.2 0.2,-0.2 0.1,0 0.2,0.1 0.2,0.2 0,0.3 0.1,0.7 0.3,0.9 -0.2,-1.8 0.3,-3.8 1.6,-5.2 0.1,-0.1 0.2,-0.1 0.3,-0.1 0.1,0 0.1,0.1 0.2,0.2 0,0.4 0,0.9 -0.2,1.4 0.6,-0.2 1.2,-0.6 1.6,-1.1 0.5,-0.6 0.8,-1.4 0.8,-2.2 h 0.5 c 0,0.9 -0.3,1.8 -0.9,2.5 -0.6,0.7 -1.4,1.2 -2.3,1.4 -0.1,0 -0.2,0 -0.2,-0.1 -0.1,-0.1 -0.1,-0.2 0,-0.2 0.1,-0.3 0.2,-0.6 0.3,-0.9 -1,1.4 -1.3,3.3 -0.9,5 0,0.1 0,0.2 -0.1,0.3 -0.1,0.1 -0.2,0.1 -0.3,0 -0.3,-0.2 -0.5,-0.5 -0.7,-0.8 -0.2,0.8 -0.6,1.5 -1.2,2.1 -0.8,0.8 -1.9,1.2 -3.1,1.2 -0.1,0 -0.2,-0.1 -0.2,-0.1 0,-0.1 0,-0.2 0.1,-0.3 0.3,-0.3 0.6,-0.5 0.8,-0.8 -0.3,0.2 -0.6,0.4 -0.9,0.5 -0.3,0.1 -0.6,0.3 -0.9,0.4 -0.4,0.1 -0.7,0.3 -1.1,0.5 -0.7,0.4 -1.1,0.8 -1.4,1.3 0,0.1 -0.1,0.1 -0.2,0.1 -0.1,0 -0.2,-0.1 -0.2,-0.2 -0.1,-0.4 -0.1,-0.8 0.1,-1.2 0.1,-0.1 0.1,-0.3 0.2,-0.4 0.1,-0.2 0.2,-0.4 0.3,-0.5 0,-0.1 0.1,-0.2 0.1,-0.4 -1.1,1.5 -2.8,2.6 -4.7,2.9 -0.1,0 -0.2,0 -0.2,-0.1 0,-0.1 0,-0.2 0.1,-0.3 0.4,-0.3 0.8,-0.8 0.9,-1.3 C 19.7,45 19,46 18.7,47 c 0,0.1 -0.1,0.2 -0.2,0.2 0,0 0,0 0,0 z"
   id="path294" />
</g>
<path
   class="st2"
   d="m 11.43094,18.5 c -0.1,0.8 -0.2,2 -0.1,2.4 0,0.3 0.2,0.9 0.4,1.5 0.3,0 0.6,0 0.9,-0.1 -0.7,-1.7 -0.5,-3.9 -0.4,-5.6 v 0 c 0,-0.3 0,-0.5 0,-0.6 V 16 c 0,-0.2 0,-0.4 0.1,-0.5 v 0 c 0.2,-0.2 0.3,-0.5 0.1,-0.7 -0.1,-0.1 -0.1,-0.1 -0.2,-0.1 -0.2,0 -0.3,0.3 -0.4,0.4 0,0 0,0 0,0 0,0 0,0 0,0 0,0.1 -0.1,0.3 -0.1,0.8 0,0.6 -0.1,1.7 -0.3,2.6 z"
   id="path298" />
<path
   d="m 20.63094,22.9 c 0,-0.1 0,-0.1 0,0 -0.1,-0.1 -0.1,-0.1 -0.1,-0.1 -0.1,0.1 -0.6,0.5 -0.8,0.7 -0.1,0.2 -0.4,1 -0.4,1.3 0,0.1 0,0.2 0,0.4 0,0.2 0,0.5 -0.2,0.7 0,0 -0.1,0.1 -0.1,0.1 -0.3,0.2 -0.4,0.4 -0.9,0.2 -0.4,-0.1 -0.6,-0.4 -0.7,-0.7 -0.1,-0.1 -0.1,-0.2 -0.2,-0.3 -0.2,-0.2 -0.3,-0.3 -0.3,-0.4 -0.3,-0.5 -1.3,-0.5 -1.8,-0.6 -0.7,-0.2 -1.4,-0.5 -1.9,-1.1 -1.8,-1.7 -1.3,-4.7 -1.2,-7 v 0 c 0,-0.3 0,-0.5 0,-0.6 v -0.1 c 0,-0.2 0,-0.4 0.1,-0.5 v 0 c 0.2,-0.2 0.3,-0.5 0.2,-0.7 -0.1,-0.1 -0.1,-0.1 -0.2,-0.1 -0.2,0 -0.3,0.3 -0.4,0.4 0,0 0,0 0,0 0,0 0,0 0,0 -0.1,0.1 -0.2,0.3 -0.2,0.8 0,0.6 -0.1,1.7 -0.3,2.6 -0.2,0.8 -0.2,2 -0.2,2.4 0,0.5 0.4,1.7 0.8,2.5 0.4,0.7 1.3,1.3 1.8,1.5 0.2,0.1 0.4,0.1 0.7,0.2 0.3,0.1 0.5,0 0.8,0.1 0.4,0.1 0.7,0.4 0.9,0.8 0.3,0.3 0.6,0.6 0.9,0.8 0.4,0.2 0.9,0.4 1.3,0.5 0.1,0 0.2,0 0.2,0 0.2,0 0.5,0 0.7,-0.2 0.2,-0.2 0.3,-0.5 0.4,-0.8 v -0.1 c 0,-0.3 0,-0.4 0.1,-1 0.1,-0.5 0.3,-0.9 0.5,-1.1 0.1,-0.1 0.1,-0.1 0.2,-0.1 0.3,0 0.4,-0.1 0.3,-0.5 z"
   id="path300" />
</svg>
